<svg xmlns="http://www.w3.org/2000/svg" width="196.348" height="62" viewBox="0 0 196.348 62">
  <g id="Download_on_the_App_Store_Badge_FR_RGB_blk_100517" transform="translate(0 0)">
    <g id="Groupe_314" data-name="Groupe 314" transform="translate(0 0)">
      <path id="Tracé_7047" data-name="Tracé 7047" d="M181.558,0H14.8c-.569,0-1.131,0-1.7,0-.475,0-.947.012-1.426.02A20.537,20.537,0,0,0,8.563.3a10.354,10.354,0,0,0-2.95.972A9.991,9.991,0,0,0,3.1,3.1,9.7,9.7,0,0,0,1.272,5.608,10.222,10.222,0,0,0,.3,8.558a20.113,20.113,0,0,0-.278,3.1c-.014.475-.016.952-.024,1.427V48.916c.008.481.009.948.024,1.429a20.112,20.112,0,0,0,.278,3.1,10.2,10.2,0,0,0,.97,2.952A9.622,9.622,0,0,0,3.1,58.9a9.738,9.738,0,0,0,2.512,1.827,10.41,10.41,0,0,0,2.95.978,20.91,20.91,0,0,0,3.11.274c.48.011.951.017,1.426.017.568,0,1.13,0,1.7,0h166.76c.558,0,1.125,0,1.682,0,.473,0,.958-.006,1.431-.017a20.636,20.636,0,0,0,3.1-.274,10.57,10.57,0,0,0,2.962-.978,9.743,9.743,0,0,0,2.51-1.827,9.913,9.913,0,0,0,1.834-2.5,10.228,10.228,0,0,0,.961-2.952,20.9,20.9,0,0,0,.288-3.1c.006-.481.006-.948.006-1.429.012-.563.012-1.123.012-1.7V14.781c0-.568,0-1.131-.012-1.692,0-.475,0-.952-.006-1.427a20.9,20.9,0,0,0-.288-3.1,10.247,10.247,0,0,0-.961-2.95,10.029,10.029,0,0,0-4.344-4.34A10.514,10.514,0,0,0,187.776.3a20.272,20.272,0,0,0-3.1-.274c-.473-.008-.958-.017-1.431-.02-.558,0-1.125,0-1.682,0Z" transform="translate(0 0)" fill="#a6a6a6"/>
      <path id="Tracé_7048" data-name="Tracé 7048" d="M12.625,60.157c-.473,0-.934-.006-1.4-.017a19.717,19.717,0,0,1-2.9-.253,9.141,9.141,0,0,1-2.571-.849,8.39,8.39,0,0,1-2.168-1.576A8.247,8.247,0,0,1,2,55.3a8.859,8.859,0,0,1-.843-2.568A19.213,19.213,0,0,1,.9,49.824C.886,49.5.873,48.409.873,48.409v-35.8S.887,11.535.9,11.22a19.148,19.148,0,0,1,.257-2.9A8.912,8.912,0,0,1,2,5.743,8.329,8.329,0,0,1,3.572,3.576,8.638,8.638,0,0,1,5.748,1.991a9.047,9.047,0,0,1,2.566-.843A19.561,19.561,0,0,1,11.225.894l1.4-.019H182.75l1.417.02a19.248,19.248,0,0,1,2.884.252A9.226,9.226,0,0,1,189.645,2a8.676,8.676,0,0,1,3.748,3.751,8.923,8.923,0,0,1,.831,2.556,20.113,20.113,0,0,1,.27,2.925c0,.439,0,.91,0,1.38.012.581.012,1.134.012,1.692V46.735c0,.563,0,1.112-.012,1.666,0,.5,0,.966-.006,1.441a19.7,19.7,0,0,1-.265,2.873,8.886,8.886,0,0,1-.838,2.588,8.495,8.495,0,0,1-1.576,2.148,8.4,8.4,0,0,1-2.172,1.585,9.107,9.107,0,0,1-2.589.852,19.492,19.492,0,0,1-2.9.253c-.455.011-.931.017-1.393.017l-1.682,0Z" transform="translate(0.483 0.484)"/>
    </g>
    <g id="Groupe_316" data-name="Groupe 316" transform="translate(15.488 12.408)">
      <g id="_Group_" data-name="&lt;Group&gt;" transform="translate(0 1.082)">
        <g id="_Group_2" data-name="&lt;Group&gt;">
          <g id="_Group_3" data-name="&lt;Group&gt;">
            <path id="_Path_" data-name="&lt;Path&gt;" d="M32.952,23.8a7.685,7.685,0,0,1,3.659-6.447,7.866,7.866,0,0,0-6.2-3.35c-2.608-.274-5.135,1.56-6.464,1.56-1.354,0-3.4-1.533-5.6-1.488A8.254,8.254,0,0,0,11.4,18.309c-3,5.2-.763,12.841,2.114,17.044,1.439,2.058,3.121,4.357,5.322,4.275,2.154-.089,2.958-1.373,5.558-1.373,2.576,0,3.33,1.373,5.576,1.322,2.311-.038,3.767-2.067,5.156-4.145a17.022,17.022,0,0,0,2.358-4.8A7.426,7.426,0,0,1,32.952,23.8Z" transform="translate(-9.974 -5.817)" fill="#fff"/>
            <path id="_Path_2" data-name="&lt;Path&gt;" d="M23.835,14.141a7.566,7.566,0,0,0,1.731-5.42A7.7,7.7,0,0,0,20.585,11.3a7.2,7.2,0,0,0-1.776,5.22,6.365,6.365,0,0,0,5.026-2.376Z" transform="translate(-5.099 -8.72)" fill="#fff"/>
          </g>
        </g>
      </g>
      <g id="_Group_4" data-name="&lt;Group&gt;" transform="translate(36.963)">
        <g id="Groupe_315" data-name="Groupe 315">
          <path id="Tracé_7049" data-name="Tracé 7049" d="M36.693,18V10.044H33.778V8.735H41.04v1.309H38.132V18Z" transform="translate(-33.778 -7.63)" fill="#fff"/>
          <path id="Tracé_7050" data-name="Tracé 7050" d="M45,16.505a2.839,2.839,0,0,1-3.03,2.023,3.176,3.176,0,0,1-3.23-3.609,3.225,3.225,0,0,1,3.224-3.653c1.946,0,3.119,1.329,3.119,3.525v.481H40.15v.077a1.848,1.848,0,0,0,1.862,2,1.676,1.676,0,0,0,1.663-.848ZM40.15,14.252h3.532a1.687,1.687,0,0,0-1.721-1.811,1.788,1.788,0,0,0-1.811,1.811Zm.989-4.02L42.75,8.023h1.618l-1.8,2.209Z" transform="translate(-31.05 -8.023)" fill="#fff"/>
          <path id="Tracé_7051" data-name="Tracé 7051" d="M44.053,8.441h1.38v9.722h-1.38Z" transform="translate(-28.099 -7.793)" fill="#fff"/>
          <path id="Tracé_7052" data-name="Tracé 7052" d="M52.447,16.505a2.839,2.839,0,0,1-3.03,2.023,3.176,3.176,0,0,1-3.23-3.609,3.225,3.225,0,0,1,3.224-3.653c1.946,0,3.119,1.329,3.119,3.525v.481H47.593v.077a1.848,1.848,0,0,0,1.862,2,1.676,1.676,0,0,0,1.663-.848Zm-4.854-2.253h3.532A1.687,1.687,0,0,0,49.4,12.441a1.788,1.788,0,0,0-1.811,1.811Zm.989-4.02,1.612-2.209h1.618l-1.8,2.209Z" transform="translate(-26.935 -8.023)" fill="#fff"/>
          <path id="Tracé_7053" data-name="Tracé 7053" d="M56.168,12.536a1.561,1.561,0,0,0-1.651-1.187c-1.155,0-1.862.886-1.862,2.375,0,1.516.713,2.421,1.862,2.421A1.52,1.52,0,0,0,56.168,15H57.51a2.736,2.736,0,0,1-2.986,2.382,3.211,3.211,0,0,1-3.281-3.654,3.188,3.188,0,0,1,3.274-3.608,2.76,2.76,0,0,1,2.993,2.42Z" transform="translate(-24.141 -6.873)" fill="#fff"/>
          <path id="Tracé_7054" data-name="Tracé 7054" d="M56.447,8.441h1.368v3.853h.109a2.152,2.152,0,0,1,2.132-1.253,2.3,2.3,0,0,1,2.408,2.607v4.514H61.083V13.989c0-1.117-.52-1.682-1.5-1.682a1.633,1.633,0,0,0-1.761,1.773v4.084h-1.38Z" transform="translate(-21.247 -7.793)" fill="#fff"/>
          <path id="Tracé_7055" data-name="Tracé 7055" d="M61.439,15.262c0-1.259.937-1.984,2.6-2.087l1.894-.109v-.6c0-.738-.488-1.156-1.431-1.156-.77,0-1.3.283-1.457.777H61.709c.141-1.2,1.271-1.971,2.857-1.971,1.753,0,2.741.873,2.741,2.35v4.777H65.98v-.983H65.87a2.353,2.353,0,0,1-2.1,1.1,2.112,2.112,0,0,1-2.331-2.093Zm4.495-.6V14.08l-1.707.109c-.963.064-1.4.392-1.4,1.008s.546,1,1.3,1a1.648,1.648,0,0,0,1.811-1.529Z" transform="translate(-18.487 -6.869)" fill="#fff"/>
          <path id="Tracé_7056" data-name="Tracé 7056" d="M66.61,10.242h1.328v1.072h.1a1.9,1.9,0,0,1,1.888-1.188,2.9,2.9,0,0,1,.616.058v1.362a3.78,3.78,0,0,0-.77-.083,1.638,1.638,0,0,0-1.785,1.644v4.128H66.61Z" transform="translate(-15.629 -6.864)" fill="#fff"/>
          <path id="Tracé_7057" data-name="Tracé 7057" d="M70.06,17.933h1.412c.117.507.7.835,1.632.835,1.149,0,1.83-.546,1.83-1.47V15.955h-.1a2.351,2.351,0,0,1-2.158,1.174c-1.785,0-2.889-1.38-2.889-3.473,0-2.132,1.116-3.532,2.9-3.532a2.423,2.423,0,0,1,2.2,1.233h.109V10.241h1.322v7.05c0,1.6-1.253,2.614-3.23,2.614C71.336,19.9,70.207,19.121,70.06,17.933Zm4.9-4.283c0-1.393-.72-2.285-1.9-2.285s-1.855.892-1.855,2.285.667,2.286,1.855,2.286,1.9-.886,1.9-2.286Z" transform="translate(-13.874 -6.863)" fill="#fff"/>
          <path id="Tracé_7058" data-name="Tracé 7058" d="M81.452,15.351a2.839,2.839,0,0,1-3.03,2.023,3.176,3.176,0,0,1-3.23-3.609,3.225,3.225,0,0,1,3.224-3.653c1.946,0,3.119,1.329,3.119,3.525v.481H76.6V14.2a1.848,1.848,0,0,0,1.862,2,1.676,1.676,0,0,0,1.663-.848ZM76.6,13.1h3.532a1.687,1.687,0,0,0-1.721-1.811A1.788,1.788,0,0,0,76.6,13.1Z" transform="translate(-10.901 -6.869)" fill="#fff"/>
          <path id="Tracé_7059" data-name="Tracé 7059" d="M80.459,10.242h1.328v1.072h.1a1.9,1.9,0,0,1,1.888-1.188,2.9,2.9,0,0,1,.616.058v1.362a3.78,3.78,0,0,0-.77-.083,1.638,1.638,0,0,0-1.785,1.644v4.128h-1.38Z" transform="translate(-7.973 -6.864)" fill="#fff"/>
          <path id="Tracé_7060" data-name="Tracé 7060" d="M86.2,14.663c0-2.209,1.136-3.609,2.9-3.609a2.3,2.3,0,0,1,2.144,1.227h.1V8.441h1.38v9.722H91.4v-1.1h-.109a2.427,2.427,0,0,1-2.2,1.22C87.319,18.278,86.2,16.878,86.2,14.663Zm1.425,0c0,1.483.7,2.375,1.868,2.375s1.882-.905,1.882-2.369-.726-2.375-1.882-2.375-1.868.9-1.868,2.369Z" transform="translate(-4.802 -7.793)" fill="#fff"/>
          <path id="Tracé_7061" data-name="Tracé 7061" d="M91.6,15.262c0-1.259.937-1.984,2.6-2.087l1.894-.109v-.6c0-.738-.488-1.156-1.431-1.156-.77,0-1.3.283-1.457.777H91.872c.141-1.2,1.271-1.971,2.857-1.971,1.753,0,2.742.873,2.742,2.35v4.777H96.142v-.983h-.109a2.353,2.353,0,0,1-2.1,1.1A2.112,2.112,0,0,1,91.6,15.262Zm4.495-.6V14.08l-1.707.109c-.963.064-1.4.392-1.4,1.008s.546,1,1.3,1a1.648,1.648,0,0,0,1.81-1.529Z" transform="translate(-1.813 -6.869)" fill="#fff"/>
          <path id="Tracé_7062" data-name="Tracé 7062" d="M96.773,10.249H98.1V11.36h.1a2.093,2.093,0,0,1,2.087-1.246,2.274,2.274,0,0,1,2.42,2.6v4.526h-1.38v-4.18c0-1.124-.488-1.682-1.509-1.682a1.6,1.6,0,0,0-1.67,1.772v4.091h-1.38Z" transform="translate(1.045 -6.871)" fill="#fff"/>
          <path id="Tracé_7063" data-name="Tracé 7063" d="M104.649,10.112c1.573,0,2.6.732,2.736,1.965h-1.324c-.127-.513-.629-.841-1.412-.841s-1.356.365-1.356.911c0,.418.353.681,1.112.854l1.161.269c1.33.309,1.953.88,1.953,1.908,0,1.316-1.227,2.2-2.9,2.2s-2.748-.751-2.871-1.99h1.381a1.419,1.419,0,0,0,1.521.873c.86,0,1.471-.385,1.471-.944,0-.417-.328-.687-1.028-.854l-1.219-.283c-1.33-.315-1.946-.911-1.946-1.952C101.933,10.985,103.069,10.112,104.649,10.112Z" transform="translate(3.798 -6.869)" fill="#fff"/>
        </g>
      </g>
    </g>
    <g id="Groupe_317" data-name="Groupe 317" transform="translate(54.563 27.651)">
      <path id="Tracé_7064" data-name="Tracé 7064" d="M35.2,18.067h2.887V37.35H35.2Z" transform="translate(-35.198 -17.745)" fill="#fff"/>
      <path id="Tracé_7065" data-name="Tracé 7065" d="M39.3,25.123l1.577-7.056H43.68L41.77,25.123Z" transform="translate(-32.932 -17.745)" fill="#fff"/>
      <path id="Tracé_7066" data-name="Tracé 7066" d="M53.5,32.138H46.15L44.385,37.35H41.271l6.962-19.283h3.234L58.43,37.35H55.263Zm-6.589-2.405h5.826l-2.872-8.459h-.08Z" transform="translate(-31.841 -17.745)" fill="#fff"/>
      <path id="Tracé_7067" data-name="Tracé 7067" d="M66.717,28.515c0,4.369-2.338,7.176-5.867,7.176a4.766,4.766,0,0,1-4.423-2.46H56.36v6.963H53.475V21.484h2.793v2.338h.053A4.987,4.987,0,0,1,60.8,21.337C64.365,21.337,66.717,24.158,66.717,28.515Zm-2.966,0c0-2.847-1.471-4.718-3.715-4.718-2.2,0-3.688,1.911-3.688,4.718,0,2.833,1.483,4.73,3.688,4.73C62.28,33.245,63.751,31.387,63.751,28.515Z" transform="translate(-25.095 -15.939)" fill="#fff"/>
      <path id="Tracé_7068" data-name="Tracé 7068" d="M76.681,28.515c0,4.369-2.338,7.176-5.867,7.176a4.766,4.766,0,0,1-4.423-2.46h-.067v6.963H63.439V21.484h2.792v2.338h.053a4.987,4.987,0,0,1,4.476-2.485C74.33,21.337,76.681,24.158,76.681,28.515Zm-2.966,0c0-2.847-1.471-4.718-3.715-4.718-2.2,0-3.688,1.911-3.688,4.718,0,2.833,1.483,4.73,3.688,4.73,2.244,0,3.715-1.858,3.715-4.73Z" transform="translate(-19.587 -15.939)" fill="#fff"/>
      <path id="Tracé_7069" data-name="Tracé 7069" d="M79.6,32.092c.214,1.912,2.071,3.168,4.61,3.168,2.432,0,4.182-1.256,4.182-2.98,0-1.5-1.055-2.393-3.554-3.007l-2.5-.6c-3.541-.855-5.185-2.511-5.185-5.2,0-3.327,2.9-5.612,7.016-5.612,4.075,0,6.868,2.285,6.962,5.612H88.224c-.174-1.924-1.765-3.086-4.09-3.086s-3.915,1.175-3.915,2.886c0,1.363,1.016,2.165,3.5,2.78l2.124.522c3.956.936,5.6,2.526,5.6,5.346,0,3.608-2.874,5.867-7.444,5.867-4.276,0-7.163-2.206-7.35-5.694Z" transform="translate(-12.283 -17.86)" fill="#fff"/>
      <path id="Tracé_7070" data-name="Tracé 7070" d="M91.95,19.289v3.327h2.673V24.9H91.95v7.751c0,1.2.535,1.765,1.711,1.765a9.02,9.02,0,0,0,.949-.067v2.272a7.925,7.925,0,0,1-1.6.133c-2.846,0-3.956-1.069-3.956-3.8V24.9H87.006V22.616H89.05V19.289Z" transform="translate(-6.559 -17.07)" fill="#fff"/>
      <path id="Tracé_7071" data-name="Tracé 7071" d="M92.908,28.524c0-4.424,2.605-7.2,6.668-7.2s6.669,2.78,6.669,7.2-2.579,7.2-6.669,7.2S92.908,32.959,92.908,28.524Zm10.4,0c0-3.035-1.391-4.826-3.729-4.826s-3.727,1.8-3.727,4.826c0,3.046,1.389,4.824,3.727,4.824s3.729-1.777,3.729-4.824Z" transform="translate(-3.296 -15.947)" fill="#fff"/>
      <path id="Tracé_7072" data-name="Tracé 7072" d="M103.029,21.484h2.752v2.393h.067a3.353,3.353,0,0,1,3.382-2.54,4.451,4.451,0,0,1,.989.108v2.7a4.034,4.034,0,0,0-1.3-.174,2.908,2.908,0,0,0-3.007,3.235v8.339h-2.886Z" transform="translate(2.298 -15.939)" fill="#fff"/>
      <path id="Tracé_7073" data-name="Tracé 7073" d="M120.741,31.423c-.388,2.552-2.874,4.3-6.053,4.3-4.09,0-6.628-2.74-6.628-7.136s2.552-7.27,6.507-7.27c3.89,0,6.336,2.672,6.336,6.935v.989h-9.929v.174a3.662,3.662,0,0,0,3.782,3.982A3.181,3.181,0,0,0,118,31.423Zm-9.755-4.2h7.029a3.381,3.381,0,0,0-3.448-3.569,3.559,3.559,0,0,0-3.58,3.569Z" transform="translate(5.079 -15.947)" fill="#fff"/>
    </g>
  </g>
</svg>
