<svg xmlns="http://www.w3.org/2000/svg" xmlns:xlink="http://www.w3.org/1999/xlink" width="262" height="224" viewBox="0 0 262 224">
  <defs>
    <linearGradient id="linear-gradient" x1="0.969" y1="0.908" x2="0.035" y2="0.073" gradientUnits="objectBoundingBox">
      <stop offset="0" stop-color="#4cc1c6"/>
      <stop offset="1" stop-color="#0d999f"/>
    </linearGradient>
    <filter id="Tracé_7243" x="0" y="0" width="262" height="203.342" filterUnits="userSpaceOnUse">
      <feOffset dx="2" dy="6" input="SourceAlpha"/>
      <feGaussianBlur stdDeviation="15" result="blur"/>
      <feFlood flood-color="#26d7de"/>
      <feComposite operator="in" in2="blur"/>
      <feComposite in="SourceGraphic"/>
    </filter>
    <linearGradient id="linear-gradient-2" x1="0.535" y1="1" x2="0.536" gradientUnits="objectBoundingBox">
      <stop offset="0" stop-color="#e8f5f6"/>
      <stop offset="1" stop-color="#e8f5f6" stop-opacity="0"/>
    </linearGradient>
    <filter id="Tracé_7242" x="37" y="33" width="184" height="125.342" filterUnits="userSpaceOnUse">
      <feOffset input="SourceAlpha"/>
      <feGaussianBlur stdDeviation="2" result="blur-2"/>
      <feFlood flood-color="#fff"/>
      <feComposite operator="in" in2="blur-2"/>
      <feComposite in="SourceGraphic"/>
    </filter>
    <filter id="Tracé_7244" x="47.267" y="51.414" width="167.466" height="172.586" filterUnits="userSpaceOnUse">
      <feOffset dx="2" dy="6" input="SourceAlpha"/>
      <feGaussianBlur stdDeviation="15" result="blur-3"/>
      <feFlood flood-color="#26d7de"/>
      <feComposite operator="in" in2="blur-3"/>
      <feComposite in="SourceGraphic"/>
    </filter>
    <filter id="Tracé_7241" x="84.267" y="84.414" width="89.466" height="94.586" filterUnits="userSpaceOnUse">
      <feOffset input="SourceAlpha"/>
      <feGaussianBlur stdDeviation="2" result="blur-4"/>
      <feFlood flood-color="#fff"/>
      <feComposite operator="in" in2="blur-4"/>
      <feComposite in="SourceGraphic"/>
    </filter>
  </defs>
  <g id="Groupe_552" data-name="Groupe 552" transform="translate(-1377 -8055.643)">
    <g transform="matrix(1, 0, 0, 1, 1377, 8055.64)" filter="url(#Tracé_7243)">
      <g id="Tracé_7243-2" data-name="Tracé 7243" transform="translate(43 351)" stroke-miterlimit="10" fill="url(#linear-gradient)">
        <path d="M68.894-293.435c22.155-33.062,74-19.4,75.772,20.719,41.652,11.461,33.676,74.058-10.191,74.058H118.1l10.959-12.021h5.725c7.184-.066,12.953-2.409,17.275-6.58a26.71,26.71,0,0,0,7.642-15.71,27.012,27.012,0,0,0-3.258-17.226c-3.1-5.235-8.072-9.029-14.98-10.93h0l-8.443-2.323-.386-8.736-.02-.4a28.077,28.077,0,0,0-21.331-26.321A29.01,29.01,0,0,0,78.9-286.75h0L74.04-279.5l-8.414-2.369L65.141-282c-16.031-4.2-31.92,7.311-32.513,23.818h0l-.3,8.382-7.983,2.611-.272.091c-8.945,3.059-13.262,11.193-11.752,20.508,1.537,9.479,8.408,15.908,18.468,15.908h12.24l11,12.021H30.787l-1.042-.015c-34.11-.969-41.173-49.463-9.15-59.937C21.482-283.3,45.409-300.047,68.894-293.435Z" stroke="none"/>
        <path d="M 103.2457580566406 -310 C 100.1617279052734 -309.9998779296875 97.09596252441406 -309.645751953125 94.13369750976562 -308.947509765625 C 91.08822631835938 -308.2295837402344 88.14558410644531 -307.145751953125 85.38748931884766 -305.7260131835938 C 79.46254730224609 -302.6761779785156 74.47240447998047 -298.1661987304688 70.55564117431641 -292.3213806152344 L 69.74822998046875 -291.1165161132812 L 68.35214233398438 -291.5096130371094 C 65.10975646972656 -292.4225463867188 61.78054809570312 -292.8854370117188 58.45696258544922 -292.8854370117188 C 53.86890411376953 -292.8854370117188 49.3731689453125 -292.0203857421875 45.09469604492188 -290.3143310546875 C 40.89564514160156 -288.639892578125 37.09577941894531 -286.2340698242188 33.80067443847656 -283.16357421875 C 30.45625305175781 -280.0471801757812 27.79031372070312 -276.3905639648438 25.87696838378906 -272.2953186035156 C 23.87222290039062 -268.0045166015625 22.76766967773438 -263.3759155273438 22.593994140625 -258.5379638671875 L 22.54389953613281 -257.142822265625 L 21.21702575683594 -256.7088317871094 C 17.60955810546875 -255.5289001464844 14.40837097167969 -253.794189453125 11.70246887207031 -251.5527648925781 C 9.180374145507812 -249.4636840820312 7.095779418945312 -246.9439392089844 5.506607055664062 -244.0636291503906 C 2.510162353515625 -238.6326904296875 1.380905151367188 -232.0455627441406 2.3267822265625 -225.515625 C 3.281646728515625 -218.9239501953125 6.279373168945312 -212.8648986816406 10.76779174804688 -208.4545593261719 C 13.15304565429688 -206.1107788085938 15.91940307617188 -204.259765625 18.98995971679688 -202.9529418945312 C 22.28436279296875 -201.5508422851562 25.91767883300781 -200.7834777832031 29.78898620605469 -200.6720581054688 L 30.80061340332031 -200.6577453613281 L 49.48641967773438 -200.6577453613281 L 42.14588928222656 -208.6788940429688 L 30.78681945800781 -208.6788940429688 C 25.42561340332031 -208.6788940429688 20.67007446289062 -210.3730163574219 17.03428649902344 -213.5781555175781 C 13.49855041503906 -216.6951293945312 11.18540954589844 -221.0828857421875 10.34487915039062 -226.2671203613281 C 9.521759033203125 -231.3442687988281 10.27740478515625 -236.1502685546875 12.53016662597656 -240.1655578613281 C 14.84475708007812 -244.291015625 18.6116943359375 -247.3414916992188 23.42378234863281 -248.9871826171875 L 23.43019104003906 -248.9893798828125 L 23.43661499023438 -248.9915161132812 L 23.70904541015625 -249.0826416015625 L 23.71534729003906 -249.0847778320312 L 23.72166442871094 -249.0868225097656 L 30.37802124023438 -251.263916015625 L 30.62884521484375 -258.2509155273438 C 30.89102172851562 -265.5548400878906 33.97076416015625 -272.3216247558594 39.30070495605469 -277.3048095703125 C 41.85205078125 -279.690185546875 44.79428100585938 -281.5593566894531 48.04566955566406 -282.8604431152344 C 51.369873046875 -284.1906433105469 54.86793518066406 -284.8651123046875 58.44272613525391 -284.8651123046875 C 60.85652160644531 -284.8651123046875 63.28037261962891 -284.5510559082031 65.64696502685547 -283.931640625 L 65.65590667724609 -283.9293212890625 L 65.66478729248047 -283.9269104003906 L 66.15058135986328 -283.7949829101562 L 66.15952301025391 -283.7925415039062 L 66.16840362548828 -283.7900390625 L 73.18586730957031 -281.814208984375 L 77.23952484130859 -287.8634033203125 C 78.76358032226562 -290.1376953125 80.52466583251953 -292.1929321289062 82.47384643554688 -293.9720458984375 C 84.38219451904297 -295.7139282226562 86.48587799072266 -297.2052307128906 88.72643280029297 -298.404541015625 C 90.93522644042969 -299.5868530273438 93.28952026367188 -300.4923095703125 95.72393035888672 -301.0957336425781 C 98.14440155029297 -301.6957397460938 100.6551666259766 -301.9999389648438 103.1864929199219 -301.9999389648438 C 106.0546722412109 -301.9999389648438 108.955078125 -301.6102905273438 111.8071670532227 -300.8418273925781 C 118.2549285888672 -299.1045532226562 123.7773742675781 -295.6209106445312 127.7774658203125 -290.7675170898438 C 131.8650512695312 -285.8079223632812 134.2291717529297 -279.5607299804688 134.6142578125 -272.701416015625 L 134.6145782470703 -272.6954956054688 L 134.6148681640625 -272.6895751953125 L 134.6351013183594 -272.2865600585938 L 134.6354370117188 -272.2805786132812 L 134.6356964111328 -272.2745361328125 L 134.9574279785156 -264.9925537109375 L 141.9975891113281 -263.0553283691406 C 145.6290740966797 -262.0560607910156 148.8511657714844 -260.5305480957031 151.5742797851562 -258.5212097167969 C 154.2504272460938 -256.5465087890625 156.4691162109375 -254.0882568359375 158.1686096191406 -251.2147827148438 C 161.3168182373047 -245.8919372558594 162.5664978027344 -239.319091796875 161.6874389648438 -232.7070922851562 C 160.8085174560547 -226.0958251953125 157.8836975097656 -220.0990905761719 153.4517517089844 -215.8215637207031 C 151.0768432617188 -213.5293884277344 148.3074340820312 -211.7611083984375 145.2204895019531 -210.5658264160156 C 142.0789947509766 -209.3494567871094 138.5750732421875 -208.715087890625 134.8060455322266 -208.680419921875 L 134.8014373779297 -208.6803588867188 L 134.7968444824219 -208.6803588867188 L 134.483642578125 -208.6789245605469 L 134.4790191650391 -208.6788940429688 L 134.4744262695312 -208.6788940429688 L 129.9454193115234 -208.6788940429688 L 122.6330108642578 -200.6577453613281 L 134.4744262695312 -200.6577453613281 C 139.4932250976562 -200.6577453613281 144.196044921875 -201.5193176269531 148.4522857666016 -203.2185974121094 C 152.4055480957031 -204.796875 155.95849609375 -207.0879211425781 159.0123748779297 -210.0280456542969 C 164.7381744384766 -215.5406494140625 168.5148773193359 -223.1913757324219 169.646728515625 -231.5709533691406 C 170.7806396484375 -239.965576171875 169.1708679199219 -248.3769836425781 165.1139373779297 -255.255615234375 C 162.9581756591797 -258.9108276367188 160.1577911376953 -262.0680541992188 156.7906036376953 -264.6396179199219 C 153.1699066162109 -267.40478515625 148.9120483398438 -269.4733276367188 144.1353149414062 -270.7877197265625 L 142.7321166992188 -271.1738586425781 L 142.6678771972656 -272.6277465820312 C 142.4176330566406 -278.2915344238281 141.1163787841797 -283.5885925292969 138.8002319335938 -288.3718566894531 C 136.6361083984375 -292.8411254882812 133.6309661865234 -296.7839660644531 129.8683166503906 -300.0908813476562 C 126.2567291259766 -303.2650146484375 122.0841369628906 -305.7407836914062 117.4664306640625 -307.4495544433594 C 112.8926086425781 -309.14208984375 108.1080780029297 -310.0001831054688 103.2457580566406 -310 M 103.2457046508789 -312 C 123.6212310791016 -312.000732421875 143.5778503417969 -297.34228515625 144.6659393310547 -272.716064453125 C 186.3182220458984 -261.254638671875 178.3422241210938 -198.6577453613281 134.4744262695312 -198.6577453613281 L 118.1033782958984 -198.6577453613281 L 129.0623474121094 -210.6788940429688 L 134.4744262695312 -210.6788940429688 L 134.7876434326172 -210.6803283691406 C 141.971435546875 -210.7463989257812 147.7406158447266 -213.0889892578125 152.0628509521484 -217.2606201171875 C 156.1725463867188 -221.2271423339844 158.8876953125 -226.8237609863281 159.7048797607422 -232.9706420898438 C 160.5221405029297 -239.1178894042969 159.3664093017578 -245.2609252929688 156.4471740722656 -250.1966552734375 C 153.3511962890625 -255.4312133789062 148.3755187988281 -259.2260131835938 141.4669647216797 -261.1270141601562 L 133.0236053466797 -263.4503479003906 L 132.6376342773438 -272.186279296875 L 132.6174011230469 -272.5892944335938 C 131.8726959228516 -285.8544921875 123.4501113891602 -295.6334838867188 111.2868499755859 -298.9107055664062 C 108.5822067260742 -299.6394348144531 105.8615570068359 -299.9999389648438 103.1865005493164 -299.9999389648438 C 93.68709564208984 -299.9999389648438 84.73780059814453 -295.4600830078125 78.90096282958984 -286.75 L 74.03990173339844 -279.4959716796875 L 65.62637329101562 -281.8648681640625 L 65.14057922363281 -281.996826171875 C 62.89204406738281 -282.5853271484375 60.64385986328125 -282.8651123046875 58.44272613525391 -282.8651123046875 C 44.95053100585938 -282.8651123046875 33.13699340820312 -272.3704223632812 32.62754821777344 -258.1791381835938 L 32.32664489746094 -249.7969970703125 L 24.34339904785156 -247.1859130859375 L 24.07096862792969 -247.0947875976562 C 15.12614440917969 -244.0357360839844 10.80889892578125 -235.9021606445312 12.31910705566406 -226.5872192382812 C 13.85591125488281 -217.1082153320312 20.72711181640625 -210.6788940429688 30.78681945800781 -210.6788940429688 L 43.02667236328125 -210.6788940429688 L 54.02778625488281 -198.6577453613281 L 30.78681945800781 -198.6577453613281 L 29.744873046875 -198.6725158691406 C -4.365509033203125 -199.6412963867188 -11.42823791503906 -248.1357421875 20.59529113769531 -258.6097412109375 C 21.34956359863281 -279.6209411621094 38.79890441894531 -294.8854370117188 58.45695495605469 -294.8854370117188 C 61.89517211914062 -294.8854370117188 65.39814758300781 -294.4191284179688 68.89419555664062 -293.4347534179688 C 77.44862365722656 -306.2001953125 90.43047332763672 -311.9995727539062 103.2457046508789 -312 Z" stroke="none" fill="rgba(255,255,255,0.15)"/>
      </g>
    </g>
    <path id="Tracé_7237" data-name="Tracé 7237" d="M68.894-293.435c22.155-33.062,74-19.4,75.772,20.719,41.652,11.461,33.676,74.058-10.191,74.058H118.1l10.959-12.021h5.725c7.184-.066,12.953-2.409,17.275-6.58a26.71,26.71,0,0,0,7.642-15.71,27.012,27.012,0,0,0-3.258-17.226c-3.1-5.235-8.072-9.029-14.98-10.93h0l-8.443-2.323-.386-8.736-.02-.4a28.077,28.077,0,0,0-21.331-26.321A29.01,29.01,0,0,0,78.9-286.75h0L74.04-279.5l-8.414-2.369L65.141-282c-16.031-4.2-31.92,7.311-32.513,23.818h0l-.3,8.382-7.983,2.611-.272.091c-8.945,3.059-13.262,11.193-11.752,20.508,1.537,9.479,8.408,15.908,18.468,15.908h12.24l11,12.021H30.787l-1.042-.015c-34.11-.969-41.173-49.463-9.15-59.937C21.482-283.3,45.409-300.047,68.894-293.435Z" transform="translate(1420 8406.643)" fill="url(#linear-gradient-2)"/>
    <g transform="matrix(1, 0, 0, 1, 1377, 8055.64)" filter="url(#Tracé_7242)">
      <g id="Tracé_7242-2" data-name="Tracé 7242" transform="translate(43 351)" fill="none" opacity="0.169">
        <path d="M68.894-293.435c22.155-33.062,74-19.4,75.772,20.719,41.652,11.461,33.676,74.058-10.191,74.058H118.1l10.959-12.021h5.725c7.184-.066,12.953-2.409,17.275-6.58a26.71,26.71,0,0,0,7.642-15.71,27.012,27.012,0,0,0-3.258-17.226c-3.1-5.235-8.072-9.029-14.98-10.93h0l-8.443-2.323-.386-8.736-.02-.4a28.077,28.077,0,0,0-21.331-26.321A29.01,29.01,0,0,0,78.9-286.75h0L74.04-279.5l-8.414-2.369L65.141-282c-16.031-4.2-31.92,7.311-32.513,23.818h0l-.3,8.382-7.983,2.611-.272.091c-8.945,3.059-13.262,11.193-11.752,20.508,1.537,9.479,8.408,15.908,18.468,15.908h12.24l11,12.021H30.787l-1.042-.015c-34.11-.969-41.173-49.463-9.15-59.937C21.482-283.3,45.409-300.047,68.894-293.435Z" stroke="none"/>
        <path d="M 103.2458267211914 -309 C 100.2389068603516 -308.9998779296875 97.25035095214844 -308.6547546386719 94.3631591796875 -307.9741516113281 C 91.3968505859375 -307.2749328613281 88.53099060058594 -306.2193908691406 85.84518432617188 -304.8368530273438 C 80.07246398925781 -301.8654174804688 75.20782470703125 -297.46728515625 71.38638305664062 -291.7647094726562 L 70.17527008056641 -289.9573974609375 L 68.08113098144531 -290.5470581054688 C 64.92693328857422 -291.4351501464844 61.68891143798828 -291.8854370117188 58.45693969726562 -291.8854370117188 C 53.99629974365234 -291.8854370117188 49.62518310546875 -291.0443420410156 45.46507263183594 -289.3854370117188 C 41.38160705566406 -287.7571411132812 37.68649291992188 -285.4176635742188 34.48237609863281 -282.4319763183594 C 31.23223876953125 -279.4033813476562 28.64176940917969 -275.8505249023438 26.782958984375 -271.8720397949219 C 24.8353271484375 -267.7034912109375 23.76220703125 -263.2052001953125 23.59335327148438 -258.5021057128906 L 23.51824951171875 -256.4093322753906 L 21.52790832519531 -255.7583618164062 C 18.04029846191406 -254.61767578125 14.94918823242188 -252.943603515625 12.34037780761719 -250.7826538085938 C 9.915191650390625 -248.7738037109375 7.910568237304688 -246.3506774902344 6.382186889648438 -243.5805053710938 C 3.490386962890625 -238.3392333984375 2.401626586914062 -231.9745788574219 3.31646728515625 -225.6589965820312 C 4.240158081054688 -219.2824401855469 7.135330200195312 -213.42578125 11.46865844726562 -209.1678161621094 C 13.76432800292969 -206.9120788574219 16.42660522460938 -205.1306762695312 19.38157653808594 -203.873046875 C 22.55805969238281 -202.5211486816406 26.06608581542969 -201.7806091308594 29.80868530273438 -201.671875 L 30.80755615234375 -201.6577453613281 L 47.21570587158203 -201.6577453613281 L 41.70545959472656 -207.6788940429688 L 30.78680419921875 -207.6788940429688 C 25.17840576171875 -207.6788940429688 20.1942138671875 -209.4594116210938 16.37301635742188 -212.8280334472656 C 12.66157531738281 -216.0998840332031 10.23574829101562 -220.6917114257812 9.357772827148438 -226.1071166992188 C 8.498077392578125 -231.4097900390625 9.293487548828125 -236.4403076171875 11.65805053710938 -240.6548461914062 C 14.09494018554688 -244.9983520507812 18.05157470703125 -248.206787109375 23.10015869140625 -249.9333801269531 L 23.10971069335938 -249.9366455078125 L 23.11929321289062 -249.9398498535156 L 23.39176940917969 -250.0309753417969 L 23.40127563476562 -250.0341796875 L 23.41079711914062 -250.0372924804688 L 29.40371704101562 -251.9974060058594 L 29.6295166015625 -258.2867736816406 C 29.90127563476562 -265.8567504882812 33.09335327148438 -272.8702392578125 38.61776733398438 -278.0352783203125 C 41.2601318359375 -280.5057373046875 44.30712890625 -282.4415283203125 47.67415618896484 -283.7888793945312 C 51.11701965332031 -285.1665649414062 54.74007415771484 -285.8651123046875 58.44271087646484 -285.8651123046875 C 60.94187927246094 -285.8651123046875 63.45093536376953 -285.5401000976562 65.90016174316406 -284.8990478515625 L 65.91355133056641 -284.8955688476562 L 65.9268798828125 -284.8919067382812 L 66.41268920898438 -284.7599792480469 L 66.42607879638672 -284.75634765625 L 66.43943786621094 -284.7525939941406 L 72.75883483886719 -282.9733276367188 L 76.40879821777344 -288.4200439453125 C 82.61798858642578 -297.685791015625 92.37807464599609 -302.9999389648438 103.1865234375 -302.9999389648438 C 106.1424942016602 -302.9999389648438 109.1304397583008 -302.5986938476562 112.0673217773438 -301.8074035644531 C 118.7168579101562 -300.0158081054688 124.4161605834961 -296.4181823730469 128.5491333007812 -291.4035034179688 C 132.7730407714844 -286.2785034179688 135.215576171875 -279.8307800292969 135.6126861572266 -272.7574462890625 L 135.6131896972656 -272.74853515625 L 135.6136322021484 -272.7396545410156 L 135.6338500976562 -272.336669921875 L 135.6342926025391 -272.3276977539062 L 135.6347198486328 -272.3187255859375 L 135.9243316650391 -265.763671875 L 142.2628784179688 -264.0195007324219 C 146.01318359375 -262.987548828125 149.3457641601562 -261.4083557128906 152.1680145263672 -259.3258666992188 C 154.9527130126953 -257.2710876464844 157.2611846923828 -254.7134094238281 159.0293273925781 -251.723876953125 C 162.2911376953125 -246.2088928222656 163.5871887207031 -239.408447265625 162.6787109375 -232.5753173828125 C 161.7701873779297 -225.7411804199219 158.7399597167969 -219.5357055664062 154.1462097167969 -215.10205078125 C 151.6749420166016 -212.7168579101562 148.7933807373047 -210.8769226074219 145.5815734863281 -209.63330078125 C 142.3274078369141 -208.3732604980469 138.705078125 -207.7162170410156 134.8152160644531 -207.6804809570312 L 134.808349609375 -207.6803894042969 L 134.8014678955078 -207.6803588867188 L 134.4882659912109 -207.6789245605469 L 134.4813537597656 -207.6788940429688 L 134.4744415283203 -207.6788940429688 L 130.386962890625 -207.6788940429688 L 124.897834777832 -201.6577453613281 L 134.4744415283203 -201.6577453613281 C 139.3656616210938 -201.6577453613281 143.9437408447266 -202.495361328125 148.0815124511719 -204.1473083496094 C 151.9141540527344 -205.6774597167969 155.3584899902344 -207.8984069824219 158.3188018798828 -210.7484741210938 C 163.8828582763672 -216.1053161621094 167.5539398193359 -223.5477600097656 168.6557464599609 -231.7047729492188 C 169.7597198486328 -239.8780212402344 168.1959991455078 -248.0614318847656 164.2525787353516 -254.7475891113281 C 162.1626281738281 -258.2911987304688 159.4478302001953 -261.3519592285156 156.1836242675781 -263.8449096679688 C 152.6653747558594 -266.5318298339844 148.5224609375 -268.5433654785156 143.8699951171875 -269.8235473632812 L 141.7651824951172 -270.4027709960938 L 141.6688232421875 -272.5836486816406 C 141.4246215820312 -278.1106567382812 140.1566619873047 -283.2759399414062 137.9001617431641 -287.93603515625 C 135.7944946289062 -292.2846069335938 132.8700714111328 -296.1213684082031 129.2081604003906 -299.3397216796875 C 125.68896484375 -302.4326477050781 121.6217422485352 -304.8456420898438 117.1194076538086 -306.51171875 C 112.6570205688477 -308.1629638671875 107.9892730712891 -309.0001831054688 103.2458267211914 -309 M 103.2457122802734 -312 C 123.6212310791016 -312.000732421875 143.5778350830078 -297.34228515625 144.6659088134766 -272.716064453125 C 186.3182067871094 -261.254638671875 178.3422393798828 -198.6577453613281 134.4744415283203 -198.6577453613281 L 118.1033782958984 -198.6577453613281 L 129.0623474121094 -210.6788940429688 L 134.4744415283203 -210.6788940429688 L 134.7876281738281 -210.6803283691406 C 141.971435546875 -210.7463989257812 147.7406005859375 -213.0889892578125 152.0628204345703 -217.2606201171875 C 156.1725463867188 -221.2271423339844 158.8877105712891 -226.8237609863281 159.7048797607422 -232.9706420898438 C 160.5221557617188 -239.1178894042969 159.3663787841797 -245.2609252929688 156.4471588134766 -250.1966552734375 C 153.3512115478516 -255.4312133789062 148.3755187988281 -259.2260131835938 141.4669647216797 -261.1270141601562 L 133.0236053466797 -263.4503479003906 L 132.6376342773438 -272.186279296875 L 132.6174011230469 -272.5892944335938 C 131.8726806640625 -285.8544921875 123.4501342773438 -295.6334838867188 111.2868499755859 -298.9107055664062 C 108.5822067260742 -299.6394348144531 105.8615570068359 -299.9999389648438 103.1865081787109 -299.9999389648438 C 93.68709564208984 -299.9999389648438 84.73780059814453 -295.4600830078125 78.90096282958984 -286.75 L 74.03990936279297 -279.4959716796875 L 65.62638092041016 -281.8648681640625 L 65.14057159423828 -281.996826171875 C 62.89203643798828 -282.5853271484375 60.64383697509766 -282.8651123046875 58.44271087646484 -282.8651123046875 C 44.95051574707031 -282.8651123046875 33.13702392578125 -272.3704223632812 32.62757873535156 -258.1791381835938 L 32.32662963867188 -249.7969970703125 L 24.34341430664062 -247.1859130859375 L 24.07093811035156 -247.0947875976562 C 15.12612915039062 -244.0357360839844 10.80891418457031 -235.9021606445312 12.31910705566406 -226.5872192382812 C 13.85588073730469 -217.1082153320312 20.72712707519531 -210.6788940429688 30.78680419921875 -210.6788940429688 L 43.02665710449219 -210.6788940429688 L 54.02779388427734 -198.6577453613281 L 30.78680419921875 -198.6577453613281 L 29.74488830566406 -198.6724853515625 C -4.365509033203125 -199.6412963867188 -11.42822265625 -248.1357421875 20.59529113769531 -258.6097412109375 C 21.34956359863281 -279.6209716796875 38.79887390136719 -294.8854370117188 58.45693969726562 -294.8854370117188 C 61.89516448974609 -294.8854370117188 65.39815521240234 -294.4191284179688 68.89421081542969 -293.4347534179688 C 77.44863891601562 -306.2001953125 90.43048858642578 -311.9995422363281 103.2457122802734 -312 Z" stroke="none" fill="#eaecef"/>
      </g>
    </g>
    <g transform="matrix(1, 0, 0, 1, 1377, 8055.64)" filter="url(#Tracé_7244)">
      <g id="Tracé_7244-2" data-name="Tracé 7244" transform="translate(-19.73 282.31)" stroke-miterlimit="10" fill="url(#linear-gradient)">
        <path d="M110.659-148.34l34.16,37.242a5.382,5.382,0,0,0,8.014,0l34.029-37.242c1.708-1.988-.394-4.374-3.942-4.374H164.445v-34.277a4.958,4.958,0,0,0-4.861-4.9H137.937a4.958,4.958,0,0,0-4.861,4.9v34.277H114.6C111.053-152.714,108.82-150.328,110.659-148.34Z" stroke="none"/>
        <path d="M 148.7771759033203 -111.3089141845703 C 149.7501068115234 -111.3089141845703 150.6691284179688 -111.7165756225586 151.3662567138672 -112.4571075439453 L 185.3604125976562 -149.6615295410156 C 185.4198303222656 -149.7334899902344 185.4494018554688 -149.7870025634766 185.4615173339844 -149.8152923583984 C 185.3663635253906 -150.0346069335938 184.5899200439453 -150.7139892578125 182.9208526611328 -150.7139892578125 L 164.4452514648438 -150.7139892578125 L 162.4452514648438 -150.7139892578125 L 162.4452514648438 -152.7139892578125 L 162.4452514648438 -186.9906005859375 C 162.4452514648438 -188.5374755859375 161.1082000732422 -189.8944091796875 159.5839691162109 -189.8944091796875 L 137.9374694824219 -189.8944091796875 C 136.4132690429688 -189.8944091796875 135.0762329101562 -188.5374755859375 135.0762329101562 -186.9906005859375 L 135.0762329101562 -152.7139892578125 L 135.0762329101562 -150.7139892578125 L 133.0762329101562 -150.7139892578125 L 114.6006393432617 -150.7139892578125 C 113.084602355957 -150.7139892578125 112.1881561279297 -150.126220703125 112.0165939331055 -149.8406219482422 C 112.0353240966797 -149.8094177246094 112.0688934326172 -149.7615814208984 112.1271438598633 -149.6986236572266 L 112.1300811767578 -149.6954498291016 L 112.1330032348633 -149.6922607421875 L 146.2931060791016 -112.4500350952148 L 146.3065795898438 -112.4353408813477 L 146.3197631835938 -112.4203720092773 C 146.9513244628906 -111.7036361694336 147.8240509033203 -111.3089141845703 148.7771759033203 -111.3089141845703 M 148.7771759033203 -109.3089141845703 C 147.3155212402344 -109.3089141845703 145.8702850341797 -109.9053192138672 144.8192138671875 -111.0981292724609 L 110.6591110229492 -148.3403625488281 C 108.8197174072266 -150.3283996582031 111.0532836914062 -152.7139892578125 114.6006393432617 -152.7139892578125 L 133.0762329101562 -152.7139892578125 L 133.0762329101562 -186.9906005859375 C 133.0762329101562 -189.6412963867188 135.3098297119141 -191.8944091796875 137.9374694824219 -191.8944091796875 L 159.5839691162109 -191.8944091796875 C 162.2116851806641 -191.8944091796875 164.4452514648438 -189.6412963867188 164.4452514648438 -186.9906005859375 L 164.4452514648438 -152.7139892578125 L 182.9208526611328 -152.7139892578125 C 186.4682159423828 -152.7139892578125 188.5704040527344 -150.3283996582031 186.8623809814453 -148.3403625488281 L 152.8336791992188 -111.0981292724609 C 151.7169189453125 -109.9053192138672 150.2388305664062 -109.3089141845703 148.7771759033203 -109.3089141845703 Z" stroke="none" fill="rgba(255,255,255,0.15)"/>
      </g>
    </g>
    <path id="Tracé_7240" data-name="Tracé 7240" d="M110.659-148.34l34.16,37.242a5.382,5.382,0,0,0,8.014,0l34.029-37.242c1.708-1.988-.394-4.374-3.942-4.374H164.445v-34.277a4.958,4.958,0,0,0-4.861-4.9H137.937a4.958,4.958,0,0,0-4.861,4.9v34.277H114.6C111.053-152.714,108.82-150.328,110.659-148.34Z" transform="translate(1357.267 8337.951)" fill="url(#linear-gradient-2)"/>
    <g transform="matrix(1, 0, 0, 1, 1377, 8055.64)" filter="url(#Tracé_7241)">
      <g id="Tracé_7241-2" data-name="Tracé 7241" transform="translate(-19.73 282.31)" fill="none" opacity="0.169">
        <path d="M110.659-148.34l34.16,37.242a5.382,5.382,0,0,0,8.014,0l34.029-37.242c1.708-1.988-.394-4.374-3.942-4.374H164.445v-34.277a4.958,4.958,0,0,0-4.861-4.9H137.937a4.958,4.958,0,0,0-4.861,4.9v34.277H114.6C111.053-152.714,108.82-150.328,110.659-148.34Z" stroke="none"/>
        <path d="M 148.7771759033203 -112.3089065551758 C 149.4692840576172 -112.3089065551758 150.1279907226562 -112.6031341552734 150.6335601806641 -113.1377258300781 L 183.9413299560547 -149.5909423828125 C 183.6793212890625 -149.6610565185547 183.3407135009766 -149.7139892578125 182.9208526611328 -149.7139892578125 L 164.4452514648438 -149.7139892578125 L 161.4452514648438 -149.7139892578125 L 161.4452514648438 -152.7139892578125 L 161.4452514648438 -186.9906005859375 C 161.4452514648438 -187.9869842529297 160.55810546875 -188.8944091796875 159.5839691162109 -188.8944091796875 L 137.9374694824219 -188.8944091796875 C 136.96337890625 -188.8944091796875 136.0762329101562 -187.9869842529297 136.0762329101562 -186.9906005859375 L 136.0762329101562 -152.7139892578125 L 136.0762329101562 -149.7139892578125 L 133.0762329101562 -149.7139892578125 L 114.6006393432617 -149.7139892578125 C 114.1863021850586 -149.7139892578125 113.8470916748047 -149.6631927490234 113.5797576904297 -149.5943603515625 L 147.0300445556641 -113.1259994506836 L 147.0502624511719 -113.1039505004883 L 147.0700378417969 -113.0815048217773 C 147.5090637207031 -112.5832901000977 148.1153259277344 -112.3089065551758 148.7771759033203 -112.3089065551758 M 148.7771759033203 -109.3089141845703 C 147.3155212402344 -109.3089141845703 145.8702850341797 -109.9053192138672 144.8192138671875 -111.0981369018555 L 110.6591033935547 -148.3403625488281 C 108.819709777832 -150.3283996582031 111.0532760620117 -152.7139892578125 114.6006393432617 -152.7139892578125 L 133.0762329101562 -152.7139892578125 L 133.0762329101562 -186.9906005859375 C 133.0762329101562 -189.6412963867188 135.309814453125 -191.8944091796875 137.9374694824219 -191.8944091796875 L 159.5839691162109 -191.8944091796875 C 162.2116851806641 -191.8944091796875 164.4452514648438 -189.6412963867188 164.4452514648438 -186.9906005859375 L 164.4452514648438 -152.7139892578125 L 182.9208526611328 -152.7139892578125 C 186.4682159423828 -152.7139892578125 188.5704040527344 -150.3283996582031 186.8623809814453 -148.3403625488281 L 152.8336791992188 -111.0981369018555 C 151.7169189453125 -109.9053192138672 150.2388305664062 -109.3089141845703 148.7771759033203 -109.3089141845703 Z" stroke="none" fill="#eaecef"/>
      </g>
    </g>
  </g>
</svg>
