<svg id="facebook" xmlns="http://www.w3.org/2000/svg" width="61.625" height="61.625" viewBox="0 0 61.625 61.625">
  <path id="Tracé_7183" data-name="Tracé 7183" d="M58.224,61.625a3.4,3.4,0,0,0,3.4-3.4V3.4a3.4,3.4,0,0,0-3.4-3.4H3.4A3.4,3.4,0,0,0,0,3.4V58.224a3.4,3.4,0,0,0,3.4,3.4H58.224" fill="#395185"/>
  <path id="Tracé_7184" data-name="Tracé 7184" d="M121.011,90.982V67.118h8.011l1.2-9.3h-9.21V51.88c0-2.693.748-4.528,4.609-4.528l4.925,0V39.032a65.833,65.833,0,0,0-7.176-.367c-7.1,0-11.962,4.334-11.962,12.294v6.859h-8.031v9.3h8.031V90.982h9.6" transform="translate(-78.491 -29.357)" fill="#fff"/>
</svg>
