<svg xmlns="http://www.w3.org/2000/svg" xmlns:xlink="http://www.w3.org/1999/xlink" width="209.245" height="62" viewBox="0 0 209.245 62">
  <defs>
    <linearGradient id="linear-gradient" x1="-1.545" y1="-0.711" x2="-1.468" y2="-0.711" gradientUnits="objectBoundingBox">
      <stop offset="0" stop-color="#00a0ff"/>
      <stop offset="1" stop-color="#00e2ff"/>
    </linearGradient>
    <linearGradient id="linear-gradient-2" x1="-3.237" y1="-3.077" x2="-3.138" y2="-3.077" gradientUnits="objectBoundingBox">
      <stop offset="0" stop-color="#ffdf00"/>
      <stop offset="1" stop-color="#ff9c00"/>
    </linearGradient>
    <linearGradient id="linear-gradient-3" x1="-1.232" y1="-2.333" x2="-1.172" y2="-2.333" gradientUnits="objectBoundingBox">
      <stop offset="0" stop-color="#ff3a44"/>
      <stop offset="1" stop-color="#c31162"/>
    </linearGradient>
    <linearGradient id="linear-gradient-4" x1="-1.234" y1="-1.333" x2="-1.174" y2="-1.333" gradientUnits="objectBoundingBox">
      <stop offset="0" stop-color="#31a070"/>
      <stop offset="1" stop-color="#00ef75"/>
    </linearGradient>
    <linearGradient id="linear-gradient-5" x1="-393.913" y1="-633.786" x2="-383.274" y2="-633.786" gradientUnits="objectBoundingBox">
      <stop offset="0" stop-color="#ccb300"/>
      <stop offset="1" stop-color="#cc7c00"/>
    </linearGradient>
    <linearGradient id="linear-gradient-6" x1="-1.225" y1="-3.91" x2="-1.165" y2="-3.91" gradientUnits="objectBoundingBox">
      <stop offset="0" stop-color="#cc2d36"/>
      <stop offset="1" stop-color="#9c0e4d"/>
    </linearGradient>
    <linearGradient id="linear-gradient-7" x1="-37.192" y1="-26.396" x2="-35.33" y2="-26.396" gradientUnits="objectBoundingBox">
      <stop offset="0" stop-color="#008cdf"/>
      <stop offset="1" stop-color="#00c6df"/>
    </linearGradient>
    <linearGradient id="linear-gradient-8" x1="-276.144" y1="-565.194" x2="-262.63" y2="-565.194" gradientUnits="objectBoundingBox">
      <stop offset="0" stop-color="#df333b"/>
      <stop offset="1" stop-color="#aa0e56"/>
    </linearGradient>
    <linearGradient id="linear-gradient-9" x1="-6.137" y1="-7.106" x2="-5.971" y2="-7.106" gradientUnits="objectBoundingBox">
      <stop offset="0" stop-color="#dfc400"/>
      <stop offset="1" stop-color="#df8900"/>
    </linearGradient>
    <linearGradient id="linear-gradient-10" x1="-6.137" y1="-6.104" x2="-5.971" y2="-6.104" gradientUnits="objectBoundingBox">
      <stop offset="0" stop-color="#ffe83f"/>
      <stop offset="1" stop-color="#ffb53f"/>
    </linearGradient>
    <linearGradient id="linear-gradient-11" x1="-37.192" y1="-10.755" x2="-35.33" y2="-10.755" gradientUnits="objectBoundingBox">
      <stop offset="0" stop-color="#3fb8ff"/>
      <stop offset="1" stop-color="#3fe9ff"/>
    </linearGradient>
    <linearGradient id="linear-gradient-12" x1="-1.225" y1="-1.963" x2="-1.165" y2="-1.963" gradientUnits="objectBoundingBox">
      <stop offset="0" stop-color="#64b895"/>
      <stop offset="1" stop-color="#3ff497"/>
    </linearGradient>
  </defs>
  <g id="google-play-badge" transform="translate(-10 -10)">
    <g id="Groupe_318" data-name="Groupe 318" transform="translate(10 10)">
      <path id="Tracé_7075" data-name="Tracé 7075" d="M211.495,72H17.75A7.773,7.773,0,0,1,10,64.249V17.75A7.773,7.773,0,0,1,17.75,10H211.495a7.773,7.773,0,0,1,7.75,7.75v46.5A7.773,7.773,0,0,1,211.495,72Z" transform="translate(-10 -10)"/>
      <path id="Tracé_7076" data-name="Tracé 7076" d="M211.495,10H17.75A7.772,7.772,0,0,0,10,17.749v46.5A7.774,7.774,0,0,0,17.75,72H211.495a7.774,7.774,0,0,0,7.75-7.75v-46.5A7.772,7.772,0,0,0,211.495,10Zm0,1.238a6.518,6.518,0,0,1,6.51,6.51v46.5a6.518,6.518,0,0,1-6.51,6.51H17.75a6.518,6.518,0,0,1-6.51-6.51v-46.5a6.518,6.518,0,0,1,6.51-6.51Z" transform="translate(-10 -9.999)" fill="#a6a6a6"/>
      <path id="Tracé_7077" data-name="Tracé 7077" d="M153.176,47.125h2.892V27.747h-2.892Zm26.05-12.4-3.315,8.4h-.1l-3.441-8.4h-3.115l5.16,11.743L171.473,53h3.018l7.951-18.272Zm-16.4,10.2c-.949,0-2.269-.473-2.269-1.645,0-1.5,1.646-2.069,3.066-2.069a5.155,5.155,0,0,1,2.643.648A3.506,3.506,0,0,1,162.824,44.922Zm.349-10.619a5.429,5.429,0,0,0-5.16,2.967l2.567,1.073a2.74,2.74,0,0,1,2.643-1.421,2.784,2.784,0,0,1,3.041,2.492v.2a6.4,6.4,0,0,0-3.016-.749c-2.767,0-5.585,1.521-5.585,4.363,0,2.592,2.269,4.262,4.811,4.262a4.083,4.083,0,0,0,3.69-1.894h.1v1.5h2.791V39.663C169.055,36.222,166.488,34.3,163.173,34.3ZM145.3,37.086h-4.114V30.444H145.3a3.321,3.321,0,1,1,0,6.642Zm-.074-9.339h-6.93V47.125h2.891V39.782h4.039a6.027,6.027,0,1,0,0-12.035Zm-37.791,17.18a4.009,4.009,0,0,1,0-7.99c1.973,0,3.522,1.7,3.522,4.019A3.685,3.685,0,0,1,107.433,44.927Zm3.322-9.114h-.1a4.568,4.568,0,0,0-3.472-1.474,6.6,6.6,0,0,0,0,13.184,4.5,4.5,0,0,0,3.472-1.5h.1v.949c0,2.522-1.348,3.87-3.522,3.87a3.649,3.649,0,0,1-3.32-2.347l-2.522,1.048a6.28,6.28,0,0,0,5.842,3.9c3.4,0,6.268-2,6.268-6.868V34.739h-2.747ZM115.5,47.125h2.9V27.747h-2.9Zm7.167-6.394a3.616,3.616,0,0,1,3.446-3.845,2.551,2.551,0,0,1,2.447,1.4Zm8.99-2.2a6.126,6.126,0,0,0-5.643-4.2,6.266,6.266,0,0,0-6.218,6.592,6.45,6.45,0,0,0,6.542,6.592,6.557,6.557,0,0,0,5.495-2.922l-2.247-1.5a3.765,3.765,0,0,1-3.247,1.823,3.352,3.352,0,0,1-3.2-2l8.815-3.646ZM61.429,36.362v2.8h6.693A5.837,5.837,0,0,1,66.6,42.679a6.852,6.852,0,0,1-5.169,2.047,7.442,7.442,0,0,1,0-14.883,7.136,7.136,0,0,1,5.045,2l1.972-1.973a9.754,9.754,0,0,0-7.017-2.821,10.239,10.239,0,1,0,0,20.475,9.361,9.361,0,0,0,7.142-2.871,9.246,9.246,0,0,0,2.423-6.542,9.177,9.177,0,0,0-.15-1.748ZM78.6,44.927a4.005,4.005,0,1,1,3.72-4A3.813,3.813,0,0,1,78.6,44.927Zm0-10.588a6.592,6.592,0,1,0,6.617,6.592A6.5,6.5,0,0,0,78.6,34.339ZM93.036,44.927a4.005,4.005,0,1,1,3.721-4A3.814,3.814,0,0,1,93.036,44.927Zm0-10.588a6.592,6.592,0,1,0,6.618,6.592A6.5,6.5,0,0,0,93.036,34.339Z" transform="translate(12.571 -0.624)" fill="#fff"/>
      <path id="Tracé_7078" data-name="Tracé 7078" d="M20.8,56.017l-.115-.11a3.1,3.1,0,0,1-.718-2.178V19.9a3,3,0,0,1,.831-2.291l19.2,19.2Zm-.832-36.351c0-.085,0-.169.006-.25C19.975,19.5,19.972,19.58,19.972,19.666Zm.008-.254v0Zm0-.011v0Z" transform="translate(-4.516 -5.814)" fill-rule="evenodd" fill="url(#linear-gradient)"/>
      <path id="Tracé_7079" data-name="Tracé 7079" d="M39.3,38.9l.146-.084,7.584-4.309a3.315,3.315,0,0,0,1.446-1.437,3.326,3.326,0,0,1-1.446,1.438l-7.584,4.309Zm0-.228-6.4-6.4,6.4-6.4,7.728,4.391a2.879,2.879,0,0,1,1.624,2.01v0a2.886,2.886,0,0,1-1.624,2.009Z" transform="translate(2.593 -1.272)" fill-rule="evenodd" fill="url(#linear-gradient-2)"/>
      <path id="Tracé_7080" data-name="Tracé 7080" d="M21.915,49.935a2,2,0,0,1-1.369-.5v0a2,2,0,0,0,1.37.505c.047,0,.095,0,.143,0Q21.987,49.935,21.915,49.935Zm0-.228a1.988,1.988,0,0,1-1.37-.5L39.749,30l6.4,6.4-22.5,12.784A3.56,3.56,0,0,1,21.917,49.707Zm-1.375-.281c-.034-.031-.068-.064-.1-.1Z" transform="translate(-4.258 1)" fill-rule="evenodd" fill="url(#linear-gradient-3)"/>
      <path id="Tracé_7081" data-name="Tracé 7081" d="M39.712,37.073l-19.2-19.2a2,2,0,0,1,1.369-.5,3.561,3.561,0,0,1,1.739.522l22.5,12.783Zm6.545-6.545L23.616,17.663a3.561,3.561,0,0,0-1.739-.522h0a3.568,3.568,0,0,1,1.738.521L46.258,30.526Z" transform="translate(-4.221 -6.073)" fill-rule="evenodd" fill="url(#linear-gradient-4)"/>
      <path id="Tracé_7082" data-name="Tracé 7082" d="M22.062,47.578a3.711,3.711,0,0,0,1.593-.516l22.5-12.783-22.5,12.783A3.669,3.669,0,0,1,22.062,47.578Zm-1.513-.5,0,0Zm-.105-.1-.009-.009Z" transform="translate(-4.261 3.352)"/>
      <path id="Tracé_7083" data-name="Tracé 7083" d="M37.027,34.309l.146-.084Z" transform="translate(4.864 3.323)" fill-rule="evenodd" fill="url(#linear-gradient-5)"/>
      <path id="Tracé_7084" data-name="Tracé 7084" d="M21.92,47.663a2,2,0,0,1-1.37-.505v0l0,0-.1-.1-.009-.009.115-.116a1.988,1.988,0,0,0,1.37.5,3.56,3.56,0,0,0,1.736-.519l22.5-12.784.144.144-.146.084-22.5,12.783a3.711,3.711,0,0,1-1.593.516C22.014,47.662,21.966,47.663,21.92,47.663Z" transform="translate(-4.261 3.272)" fill-rule="evenodd" fill="url(#linear-gradient-6)"/>
      <path id="Tracé_7085" data-name="Tracé 7085" d="M20.69,43.238a3.1,3.1,0,0,1-.718-2.178v0a3.1,3.1,0,0,0,.718,2.178Z" transform="translate(-4.516 7.081)"/>
      <path id="Tracé_7086" data-name="Tracé 7086" d="M20.69,43.316a3.1,3.1,0,0,1-.718-2.178v-.225a3.1,3.1,0,0,0,.718,2.178l.115.11Z" transform="translate(-4.516 7.001)" fill-rule="evenodd" fill="url(#linear-gradient-7)"/>
      <path id="Tracé_7087" data-name="Tracé 7087" d="M20.435,42.506v0l.115-.115Z" transform="translate(-4.261 7.813)" fill-rule="evenodd" fill="url(#linear-gradient-8)"/>
      <path id="Tracé_7088" data-name="Tracé 7088" d="M42.947,30.8a1.909,1.909,0,0,0,.178-.8,0,0,0,0,1,0,0A1.918,1.918,0,0,1,42.947,30.8Z" transform="translate(8.12 1)"/>
      <path id="Tracé_7089" data-name="Tracé 7089" d="M37.172,36.547l-.144-.144,7.728-4.391A2.886,2.886,0,0,0,46.38,30a1.909,1.909,0,0,1-.178.8,3.315,3.315,0,0,1-1.446,1.437Z" transform="translate(4.864 1.001)" fill-rule="evenodd" fill="url(#linear-gradient-9)"/>
      <path id="Tracé_7090" data-name="Tracé 7090" d="M46.331,32.324h0A2.718,2.718,0,0,0,44.7,30.087l-7.584-4.309v0l7.584,4.31A2.72,2.72,0,0,1,46.331,32.324Z" transform="translate(4.915 -1.323)" fill="#404040"/>
      <path id="Tracé_7091" data-name="Tracé 7091" d="M46.38,32.323a2.879,2.879,0,0,0-1.624-2.01l-7.728-4.391.144-.144,7.584,4.309A2.718,2.718,0,0,1,46.38,32.323Z" transform="translate(4.864 -1.323)" fill-rule="evenodd" fill="url(#linear-gradient-10)"/>
      <path id="Tracé_7092" data-name="Tracé 7092" d="M19.972,19.926v0Zm.006-.251a.006.006,0,0,0,0,0A.006.006,0,0,1,19.978,19.675Zm0-.008v0Zm0-.009c.09-1.592.955-2.511,2.179-2.517a1.99,1.99,0,0,0-1.355.5l0,0c-.037.034-.074.07-.11.107A2.958,2.958,0,0,0,19.98,19.658Z" transform="translate(-4.516 -6.073)" fill="#404040"/>
      <path id="Tracé_7093" data-name="Tracé 7093" d="M19.972,19.983v-.237c0-.085,0-.169.006-.25a.006.006,0,0,0,0,0v-.012a2.958,2.958,0,0,1,.71-1.9l.113.115A3,3,0,0,0,19.972,19.983Zm.828-2.512,0,0Z" transform="translate(-4.516 -5.894)" fill-rule="evenodd" fill="url(#linear-gradient-11)"/>
      <path id="Tracé_7094" data-name="Tracé 7094" d="M21.383,17.141h0Z" transform="translate(-3.74 -6.073)" fill="#404040"/>
      <path id="Tracé_7095" data-name="Tracé 7095" d="M46.154,30.672,23.656,17.89a3.561,3.561,0,0,0-1.739-.522,2,2,0,0,0-1.369.5l-.113-.115c.036-.037.073-.073.11-.107l0,0a1.99,1.99,0,0,1,1.355-.5h.012a3.561,3.561,0,0,1,1.739.522L46.3,30.528Z" transform="translate(-4.261 -6.073)" fill-rule="evenodd" fill="url(#linear-gradient-12)"/>
      <path id="Tracé_7096" data-name="Tracé 7096" d="M52.471,25.157h1.651a3.487,3.487,0,0,0,2.551-.922,3.45,3.45,0,0,0,.942-2.585,3.234,3.234,0,0,0-3.494-3.506H52.471ZM51.278,26.3V17h2.844a4.625,4.625,0,0,1,3.43,1.293,4.561,4.561,0,0,1,1.285,3.357,4.556,4.556,0,0,1-1.285,3.357,4.619,4.619,0,0,1-3.43,1.293Z" transform="translate(12.701 -6.15)" fill="#fff"/>
      <path id="Tracé_7097" data-name="Tracé 7097" d="M52.526,25.212v.155h1.651a3.644,3.644,0,0,0,2.66-.967,3.6,3.6,0,0,0,.989-2.7,3.613,3.613,0,0,0-.987-2.688h0a3.63,3.63,0,0,0-2.66-.973H52.371v7.324h.155v-.155h.155V18.354h1.5A3.08,3.08,0,0,1,57.516,21.7a3.292,3.292,0,0,1-.9,2.474,3.332,3.332,0,0,1-2.443.879H52.526v.155h0Zm-1.193,1.142h.155V17.21h2.689a4.471,4.471,0,0,1,3.32,1.248,4.4,4.4,0,0,1,1.24,3.247,4.4,4.4,0,0,1-1.24,3.249,4.464,4.464,0,0,1-3.32,1.246H51.333v.155h0v.155h2.844a4.781,4.781,0,0,0,3.54-1.338,4.716,4.716,0,0,0,1.33-3.467,4.713,4.713,0,0,0-1.33-3.466,4.788,4.788,0,0,0-3.54-1.339h-3v9.61h.155Z" transform="translate(12.646 -6.205)" fill="#fff"/>
      <rect id="Rectangle_12" data-name="Rectangle 12" width="1.193" height="9.3" transform="translate(73.216 10.85)" fill="#fff"/>
      <path id="Tracé_7098" data-name="Tracé 7098" d="M57.292,26.355h.155V17.21h.883V26.2H57.292v.155h0v.155H58.64V16.9h-1.5v9.61h.155Z" transform="translate(15.924 -6.205)" fill="#fff"/>
      <path id="Tracé_7099" data-name="Tracé 7099" d="M62.226,26.581a3.466,3.466,0,0,1-1.981-.662,3.06,3.06,0,0,1-1.266-1.857l1.091-.442a2.488,2.488,0,0,0,.8,1.293,2.019,2.019,0,0,0,1.358.525,2.173,2.173,0,0,0,1.331-.409,1.312,1.312,0,0,0,.552-1.111,1.423,1.423,0,0,0-.552-1.2,5.7,5.7,0,0,0-1.747-.787,4.681,4.681,0,0,1-1.871-1.006,2.107,2.107,0,0,1-.637-1.578,2.311,2.311,0,0,1,.794-1.741,2.907,2.907,0,0,1,2.065-.741,2.986,2.986,0,0,1,1.922.592,2.736,2.736,0,0,1,.961,1.293l-1.09.453a1.62,1.62,0,0,0-.578-.817,2.029,2.029,0,0,0-2.364.006,1.169,1.169,0,0,0-.488.955,1.089,1.089,0,0,0,.448.877,4.312,4.312,0,0,0,1.319.642,11.008,11.008,0,0,1,1.15.429,5.246,5.246,0,0,1,.933.552,2.188,2.188,0,0,1,.715.857,2.76,2.76,0,0,1,.242,1.189,2.564,2.564,0,0,1-.279,1.207,2.251,2.251,0,0,1-.742.845,3.677,3.677,0,0,1-.992.474A3.721,3.721,0,0,1,62.226,26.581Z" transform="translate(16.937 -6.224)" fill="#fff"/>
      <path id="Tracé_7100" data-name="Tracé 7100" d="M62.291,26.791v-.31a3.312,3.312,0,0,1-1.893-.634,2.915,2.915,0,0,1-1.2-1.767l-.15.037.059.143,1.091-.44-.059-.144-.15.039a2.654,2.654,0,0,0,.846,1.37,2.174,2.174,0,0,0,1.46.564,2.346,2.346,0,0,0,1.424-.439,1.469,1.469,0,0,0,.614-1.237,1.583,1.583,0,0,0-.612-1.324,5.847,5.847,0,0,0-1.8-.811h0a4.5,4.5,0,0,1-1.809-.97,1.945,1.945,0,0,1-.591-1.466,2.152,2.152,0,0,1,.744-1.627,2.752,2.752,0,0,1,1.959-.7,2.845,2.845,0,0,1,1.826.558,2.585,2.585,0,0,1,.91,1.217l.147-.045-.059-.144-1.09.454.059.143.15-.039a1.771,1.771,0,0,0-.631-.9,2.182,2.182,0,0,0-2.557.006v0a1.326,1.326,0,0,0-.547,1.077,1.244,1.244,0,0,0,.507,1,4.469,4.469,0,0,0,1.367.668,11.4,11.4,0,0,1,1.135.423,5.115,5.115,0,0,1,.907.536,2.05,2.05,0,0,1,.665.8,2.616,2.616,0,0,1,.226,1.122,2.4,2.4,0,0,1-.262,1.136,2.1,2.1,0,0,1-.691.787h0a3.514,3.514,0,0,1-.952.454,3.571,3.571,0,0,1-1.046.155v.31a3.865,3.865,0,0,0,1.136-.169,3.8,3.8,0,0,0,1.034-.493h0a2.443,2.443,0,0,0,.792-.9,2.729,2.729,0,0,0,.3-1.28,2.919,2.919,0,0,0-.256-1.254,2.348,2.348,0,0,0-.764-.918,5.442,5.442,0,0,0-.961-.567,11.255,11.255,0,0,0-1.167-.436h0a4.135,4.135,0,0,1-1.271-.617l0,0a.93.93,0,0,1-.391-.756,1.011,1.011,0,0,1,.428-.832h0a1.876,1.876,0,0,1,2.17-.009l0,0,0,0a1.459,1.459,0,0,1,.525.738l.047.172,1.254-.522.13-.054-.042-.135a2.892,2.892,0,0,0-1.014-1.369,3.15,3.15,0,0,0-2.018-.625,3.065,3.065,0,0,0-2.172.783,2.469,2.469,0,0,0-.842,1.854,2.258,2.258,0,0,0,.685,1.689,4.829,4.829,0,0,0,1.931,1.043h0a5.57,5.57,0,0,1,1.7.761,1.265,1.265,0,0,1,.491,1.077,1.156,1.156,0,0,1-.488.987,2.016,2.016,0,0,1-1.24.378,1.868,1.868,0,0,1-1.257-.488,2.341,2.341,0,0,1-.749-1.214l-.043-.172-1.255.508-.126.051.033.13a3.216,3.216,0,0,0,1.33,1.948A3.624,3.624,0,0,0,62.291,26.791Z" transform="translate(16.872 -6.279)" fill="#fff"/>
      <path id="Tracé_7101" data-name="Tracé 7101" d="M65.378,21.389h2a1.54,1.54,0,0,0,1.207-.505,1.6,1.6,0,0,0,0-2.233,1.541,1.541,0,0,0-1.207-.507h-2Zm0,4.91h-1.2V17h3.17a2.935,2.935,0,0,1,2.044.786,2.7,2.7,0,0,1,0,3.962,2.935,2.935,0,0,1-2.044.786H65.378Z" transform="translate(19.799 -6.15)" fill="#fff"/>
      <path id="Tracé_7102" data-name="Tracé 7102" d="M65.433,21.444V21.6h2a1.69,1.69,0,0,0,1.322-.556,1.754,1.754,0,0,0,0-2.441,1.691,1.691,0,0,0-1.322-.558H65.278V21.6h.155v-.155h.155V18.354h1.846a1.378,1.378,0,0,1,1.091.456h0a1.446,1.446,0,0,1,0,2.027h0a1.391,1.391,0,0,1-1.093.453h-2v.155h0Zm0,4.91V26.2h-1.04V17.21h3.015a2.782,2.782,0,0,1,1.941.746,2.547,2.547,0,0,1,0,3.732,2.782,2.782,0,0,1-1.941.746h-2.13v3.921h.155v0h.155V22.743h1.82a3.1,3.1,0,0,0,2.15-.826,2.858,2.858,0,0,0,0-4.191,3.1,3.1,0,0,0-2.15-.826H64.083v9.61h1.505v-.155Z" transform="translate(19.744 -6.205)" fill="#fff"/>
      <path id="Tracé_7103" data-name="Tracé 7103" d="M70.952,24.394a3.577,3.577,0,0,0,5.053,0,3.643,3.643,0,0,0,1.034-2.671A3.642,3.642,0,0,0,76,19.055a3.577,3.577,0,0,0-5.053,0,3.647,3.647,0,0,0-1.032,2.669A3.648,3.648,0,0,0,70.952,24.394Zm5.936.778a4.829,4.829,0,0,1-6.818,0,5.023,5.023,0,0,1,0-6.9,4.81,4.81,0,0,1,6.812.006,5.007,5.007,0,0,1,.006,6.89Z" transform="translate(22.283 -6.224)" fill="#fff"/>
      <path id="Tracé_7104" data-name="Tracé 7104" d="M71.007,24.449l-.11.108a3.731,3.731,0,0,0,5.273,0,3.8,3.8,0,0,0,1.079-2.779A3.8,3.8,0,0,0,76.17,19,3.731,3.731,0,0,0,70.9,19a3.8,3.8,0,0,0-1.077,2.778A3.8,3.8,0,0,0,70.9,24.558l.11-.108.11-.11a3.487,3.487,0,0,1-.987-2.561,3.492,3.492,0,0,1,.987-2.561v0a3.42,3.42,0,0,1,4.831,0l0,0,0,0a3.476,3.476,0,0,1,.99,2.559,3.477,3.477,0,0,1-.99,2.561,3.418,3.418,0,0,1-4.831,0Zm6.048.887-.223-.217a4.674,4.674,0,0,1-6.6,0l0,0,0,0a4.87,4.87,0,0,1,0-6.679,4.655,4.655,0,0,1,6.59.006,4.85,4.85,0,0,1,.006,6.673l.223.217a5.164,5.164,0,0,0-.006-7.107,4.967,4.967,0,0,0-7.035-.006,5.181,5.181,0,0,0,0,7.113,4.986,4.986,0,0,0,7.041,0Z" transform="translate(22.228 -6.279)" fill="#fff"/>
      <path id="Tracé_7105" data-name="Tracé 7105" d="M75.949,26.3V17H77.4l4.52,7.235h.051l-.051-1.792V17h1.2v9.3H81.871l-4.729-7.584h-.051l.051,1.792V26.3Z" transform="translate(26.269 -6.15)" fill="#fff"/>
      <path id="Tracé_7106" data-name="Tracé 7106" d="M76,26.355h.155V17.21h1.214l4.52,7.235h.3l-.056-1.95V17.21h.887V26.2H82.013l-4.729-7.584h-.3l.056,1.95V26.2H76v.155h0v.155h1.348V20.561L77.3,18.766l-.155,0v.155H77.2v-.155l-.132.082,4.775,7.657h1.488V16.9H81.823v5.6l.053,1.795.153,0v-.155h-.051v.155l.132-.082L77.545,16.9h-1.7v9.61H76Z" transform="translate(26.214 -6.205)" fill="#fff"/>
      <rect id="Rectangle_13" data-name="Rectangle 13" width="1.193" height="9.3" transform="translate(111.518 10.85)" fill="#fff"/>
      <path id="Tracé_7107" data-name="Tracé 7107" d="M82,26.355h.155V17.21h.883V26.2H82v.155h0v.155h1.348V16.9h-1.5v9.61H82Z" transform="translate(29.514 -6.205)" fill="#fff"/>
      <path id="Tracé_7108" data-name="Tracé 7108" d="M85.288,25.157h2.4a1.424,1.424,0,0,0,1.116-.48,1.543,1.543,0,0,0,.429-1.052,1.568,1.568,0,0,0-1.6-1.521h-2.35Zm0-4.169h2.168a1.394,1.394,0,0,0,1.085-.448,1.387,1.387,0,0,0,.012-1.954,1.332,1.332,0,0,0-1.045-.442H85.288Zm-1.2,5.312V17h3.363a2.737,2.737,0,0,1,1.891.721,2.339,2.339,0,0,1,.8,1.812A2.036,2.036,0,0,1,89.8,20.7a2.168,2.168,0,0,1-.916.766v.051a2.37,2.37,0,0,1,1.131.806,2.116,2.116,0,0,1,.442,1.325,2.442,2.442,0,0,1-.839,1.9,2.867,2.867,0,0,1-1.982.753Z" transform="translate(30.748 -6.15)" fill="#fff"/>
      <path id="Tracé_7109" data-name="Tracé 7109" d="M85.343,25.212v.155h2.4a1.585,1.585,0,0,0,1.232-.533,1.705,1.705,0,0,0,.468-1.155A1.721,1.721,0,0,0,87.693,22h-2.5v3.363h.155v-.155H85.5v-2.9h2.195a1.415,1.415,0,0,1,1.445,1.366,1.39,1.39,0,0,1-.389.949,1.27,1.27,0,0,1-1,.429h-2.4v.155h0Zm0-4.169V21.2h2.168a1.552,1.552,0,0,0,1.2-.5,1.54,1.54,0,0,0,.012-2.162h0a1.491,1.491,0,0,0-1.161-.493H85.188V21.2h.155v-.155H85.5V18.354h2.066a1.177,1.177,0,0,1,.93.391,1.233,1.233,0,0,1-.011,1.745h0a1.238,1.238,0,0,1-.97.4H85.343v.155h0Zm-1.2,5.312H84.3V17.21h3.208a2.575,2.575,0,0,1,1.787.682v0a2.189,2.189,0,0,1,.749,1.7,1.874,1.874,0,0,1-.319,1.082v0a2,2,0,0,1-.851.711l-.091.042v.262l.105.036a2.215,2.215,0,0,1,1.059.753h0a1.966,1.966,0,0,1,.411,1.231,2.287,2.287,0,0,1-.787,1.781,2.7,2.7,0,0,1-1.879.713H84.148v.155h0v.155h3.545a3.02,3.02,0,0,0,2.086-.794,2.6,2.6,0,0,0,.89-2.01,2.275,2.275,0,0,0-.474-1.42,2.513,2.513,0,0,0-1.2-.857l-.05.146H89.1v-.051H88.94l.064.141a2.314,2.314,0,0,0,.981-.82,2.189,2.189,0,0,0,.372-1.257,2.5,2.5,0,0,0-.851-1.927l0,0,0,0a2.9,2.9,0,0,0-1.995-.761H83.993v9.61h.155Z" transform="translate(30.693 -6.205)" fill="#fff"/>
      <path id="Tracé_7110" data-name="Tracé 7110" d="M89.239,26.3V17h1.193v8.157h4.027V26.3Z" transform="translate(33.578 -6.15)" fill="#fff"/>
      <path id="Tracé_7111" data-name="Tracé 7111" d="M89.294,26.355h.155V17.21h.883v8.157h4.027V26.2H89.294v.155h0v.155h5.375V25.057H90.642V16.9h-1.5v9.61h.155Z" transform="translate(33.523 -6.205)" fill="#fff"/>
      <path id="Tracé_7112" data-name="Tracé 7112" d="M99.01,18.144H94.773v2.948h3.819v1.118H94.773v2.948H99.01V26.3H93.58V17h5.43Z" transform="translate(35.966 -6.15)" fill="#fff"/>
      <path id="Tracé_7113" data-name="Tracé 7113" d="M99.065,18.2v-.155H94.673V21.3h3.819v.808H94.673v3.258H98.91V26.2H93.79V17.21h5.12V18.2h.155v0h.155V16.9H93.48v9.61H99.22V25.057H94.983V22.419H98.8V20.992H94.983V18.354H99.22V18.2Z" transform="translate(35.911 -6.205)" fill="#fff"/>
      <path id="Tracé_7114" data-name="Tracé 7114" d="M102.894,26.581a3.465,3.465,0,0,1-1.979-.662,3.062,3.062,0,0,1-1.268-1.857l1.093-.442a2.485,2.485,0,0,0,.8,1.293,2.019,2.019,0,0,0,1.358.525,2.18,2.18,0,0,0,1.333-.409,1.311,1.311,0,0,0,.55-1.111,1.421,1.421,0,0,0-.55-1.2,5.732,5.732,0,0,0-1.747-.787,4.659,4.659,0,0,1-1.871-1.006,2.1,2.1,0,0,1-.639-1.578,2.311,2.311,0,0,1,.794-1.741,2.907,2.907,0,0,1,2.065-.741,2.986,2.986,0,0,1,1.922.592,2.73,2.73,0,0,1,.963,1.293l-1.091.453a1.6,1.6,0,0,0-.578-.817,1.818,1.818,0,0,0-1.189-.377,1.838,1.838,0,0,0-1.175.383,1.168,1.168,0,0,0-.487.955,1.085,1.085,0,0,0,.448.877,4.283,4.283,0,0,0,1.317.642,11.005,11.005,0,0,1,1.15.429,5.2,5.2,0,0,1,.935.552,2.214,2.214,0,0,1,.715.857,2.783,2.783,0,0,1,.24,1.189,2.545,2.545,0,0,1-.279,1.207,2.261,2.261,0,0,1-.741.845,3.664,3.664,0,0,1-.994.474A3.713,3.713,0,0,1,102.894,26.581Z" transform="translate(39.302 -6.224)" fill="#fff"/>
      <path id="Tracé_7115" data-name="Tracé 7115" d="M102.959,26.791v-.31a3.316,3.316,0,0,1-1.892-.634,2.915,2.915,0,0,1-1.2-1.767l-.15.037.057.143,1.093-.44-.057-.144-.15.039a2.635,2.635,0,0,0,.846,1.37l0,0,0,0a2.167,2.167,0,0,0,1.459.564,2.346,2.346,0,0,0,1.424-.439A1.469,1.469,0,0,0,105,23.973a1.579,1.579,0,0,0-.612-1.324,5.836,5.836,0,0,0-1.795-.811h0a4.512,4.512,0,0,1-1.81-.97,1.945,1.945,0,0,1-.591-1.466,2.152,2.152,0,0,1,.744-1.627,2.754,2.754,0,0,1,1.959-.7,2.842,2.842,0,0,1,1.826.558,2.574,2.574,0,0,1,.91,1.217l.149-.045-.06-.144-1.09.454.059.143.15-.039a1.768,1.768,0,0,0-.629-.9,2.185,2.185,0,0,0-2.559.006v0A1.329,1.329,0,0,0,101.1,19.4a1.242,1.242,0,0,0,.505,1,4.469,4.469,0,0,0,1.367.668h0a11.5,11.5,0,0,1,1.133.423,5.06,5.06,0,0,1,.907.536,2.037,2.037,0,0,1,.665.8,2.593,2.593,0,0,1,.226,1.122,2.4,2.4,0,0,1-.26,1.136,2.128,2.128,0,0,1-.691.787,3.492,3.492,0,0,1-.952.454,3.563,3.563,0,0,1-1.046.155v.31a3.857,3.857,0,0,0,1.136-.169,3.808,3.808,0,0,0,1.035-.493,2.443,2.443,0,0,0,.792-.9,2.729,2.729,0,0,0,.3-1.28,2.919,2.919,0,0,0-.256-1.254,2.344,2.344,0,0,0-.763-.918l0,0,0,0a5.4,5.4,0,0,0-.963-.567,11.35,11.35,0,0,0-1.166-.436,4.124,4.124,0,0,1-1.269-.617v0a.928.928,0,0,1-.389-.756,1.007,1.007,0,0,1,.428-.832,1.876,1.876,0,0,1,2.17-.009,1.463,1.463,0,0,1,.527.738l.045.172,1.254-.522.13-.054-.042-.135a2.888,2.888,0,0,0-1.012-1.369,3.154,3.154,0,0,0-2.02-.625,3.059,3.059,0,0,0-2.17.783,2.465,2.465,0,0,0-.843,1.854,2.258,2.258,0,0,0,.685,1.689,4.836,4.836,0,0,0,1.933,1.043,5.582,5.582,0,0,1,1.7.761,1.264,1.264,0,0,1,.49,1.077,1.153,1.153,0,0,1-.488.987,2.016,2.016,0,0,1-1.24.378,1.867,1.867,0,0,1-1.255-.488,2.343,2.343,0,0,1-.75-1.214l-.043-.172-1.255.508-.126.051.033.13a3.216,3.216,0,0,0,1.33,1.948A3.628,3.628,0,0,0,102.959,26.791Z" transform="translate(39.237 -6.279)" fill="#fff"/>
      <path id="Tracé_7116" data-name="Tracé 7116" d="M108.159,26.507A3.266,3.266,0,0,1,105.67,25.5a3.712,3.712,0,0,1-.953-2.65V17h1.193v5.9a2.662,2.662,0,0,0,.578,1.786,2.384,2.384,0,0,0,3.339,0,2.662,2.662,0,0,0,.578-1.786V17h1.2v5.845a3.765,3.765,0,0,1-.928,2.657A3.255,3.255,0,0,1,108.159,26.507Z" transform="translate(42.091 -6.15)" fill="#fff"/>
      <path id="Tracé_7117" data-name="Tracé 7117" d="M108.214,26.717v-.31a3.106,3.106,0,0,1-2.376-.964,3.55,3.55,0,0,1-.911-2.543V17.21h.883v5.743a2.823,2.823,0,0,0,.615,1.886,2.537,2.537,0,0,0,3.574,0,2.823,2.823,0,0,0,.615-1.886V17.21h.885V22.9a3.6,3.6,0,0,1-.888,2.551,3.092,3.092,0,0,1-2.4.956v.31a3.409,3.409,0,0,0,2.626-1.056,3.915,3.915,0,0,0,.97-2.762v-6h-1.505v6.053a2.518,2.518,0,0,1-.543,1.686,2.231,2.231,0,0,1-3.1,0,2.518,2.518,0,0,1-.542-1.686V16.9h-1.5v6a3.864,3.864,0,0,0,1,2.756A3.419,3.419,0,0,0,108.214,26.717Z" transform="translate(42.036 -6.205)" fill="#fff"/>
      <path id="Tracé_7118" data-name="Tracé 7118" d="M111.593,21.417h1.922a1.76,1.76,0,0,0,1.228-.468,1.527,1.527,0,0,0,.513-1.181,1.633,1.633,0,0,0-.454-1.118,1.541,1.541,0,0,0-1.207-.507h-2ZM110.4,26.3V17h3.17a2.939,2.939,0,0,1,2.046.786,2.677,2.677,0,0,1,.226,3.7,2.756,2.756,0,0,1-1.584.941l-.026.039,2.612,3.78V26.3h-1.415l-2.508-3.766h-1.325V26.3Z" transform="translate(45.215 -6.15)" fill="#fff"/>
      <path id="Tracé_7119" data-name="Tracé 7119" d="M111.648,21.472v.155h1.922a1.927,1.927,0,0,0,1.333-.508h0a1.684,1.684,0,0,0,.564-1.3,1.791,1.791,0,0,0-.493-1.221,1.7,1.7,0,0,0-1.324-.558h-2.156v3.584h.155v-.155h.155V18.354h1.846a1.383,1.383,0,0,1,1.093.456,1.477,1.477,0,0,1,.414,1.014,1.368,1.368,0,0,1-.462,1.066,1.6,1.6,0,0,1-1.124.428h-1.922v.155h0Zm-1.2,4.882h.155V17.21h3.015a2.779,2.779,0,0,1,1.941.746,2.521,2.521,0,0,1,.214,3.487,2.6,2.6,0,0,1-1.5.89l-.064.014-.06.091-.059.087,2.644,3.827v0h.155V26.2h-1.333l-2.506-3.766h-1.564V26.2h-1.04v.155h0v.155h1.35V22.743h1.088L115.4,26.51h1.654v-.254l-2.64-3.821-.127.088.129.087.026-.039-.129-.087.031.152a2.908,2.908,0,0,0,1.671-.992,2.832,2.832,0,0,0-.24-3.918,3.1,3.1,0,0,0-2.15-.826H110.3v9.61h.155Z" transform="translate(45.16 -6.205)" fill="#fff"/>
    </g>
  </g>
</svg>
