<svg xmlns="http://www.w3.org/2000/svg" width="58" height="54" viewBox="0 0 58 54">
  <g id="Groupe_329" data-name="Groupe 329" transform="translate(-1539 -1454)">
    <circle id="Ellipse_2" data-name="Ellipse 2" cx="27" cy="27" r="27" transform="translate(1543 1454)" fill="#fff"/>
    <path id="icons8-clock" d="M28,2A26,26,0,1,0,54,28,26,26,0,0,0,28,2Zm6.724,36.4-8.562-8.562A2.6,2.6,0,0,1,25.4,28V15A2.6,2.6,0,0,1,28,12.4h0A2.6,2.6,0,0,1,30.6,15V26.924l7.8,7.8a2.6,2.6,0,0,1,0,3.676h0A2.6,2.6,0,0,1,34.724,38.4Z" transform="translate(1537 1453)" fill="#16999f"/>
  </g>
</svg>
