<svg xmlns="http://www.w3.org/2000/svg" width="37.087" height="50" viewBox="0 0 37.087 50">
  <path id="icons8-volunteering" d="M38.531,7a2.353,2.353,0,0,0-2.5,2.531V23a1,1,0,0,1-1,1A1.026,1.026,0,0,1,34,23V4.48A2.332,2.332,0,0,0,31.52,2a2.417,2.417,0,0,0-2.5,2.508v17.5a1,1,0,0,1-1,1,1.01,1.01,0,0,1-1.016-1V2.508a2.5,2.5,0,1,0-5,0V23a1,1,0,0,1-2,0V6.547a2.5,2.5,0,0,0-5-.113V32.3a.665.665,0,0,1-.133.047l0-.047-5-6a3.384,3.384,0,0,0-4.9,0,3.382,3.382,0,0,0,0,4.9l.109.145a.924.924,0,0,0,.137.27l8.52,10.945,2.73,3.539,0-.035.352.453s0,0,.008,0a8.756,8.756,0,0,0,6.551,3.453c.125.008.262.016.4.02.043,0,.086.008.129.008,0,0,.008,0,.016,0,.027,0,.055,0,.086,0h8a8.912,8.912,0,0,0,9-9V9.582A2.347,2.347,0,0,0,38.531,7ZM33.82,36.672,28,42.492l-5.82-5.82A3.881,3.881,0,1,1,28,31.578a3.88,3.88,0,1,1,5.82,5.094Z" transform="translate(-3.913)" fill="#16999f"/>
</svg>
