<svg xmlns="http://www.w3.org/2000/svg" width="54" height="49.714" viewBox="0 0 54 49.714">
  <path id="icons8-user_groups" d="M18.36,2a5.4,5.4,0,1,0,5.4,5.4A5.4,5.4,0,0,0,18.36,2ZM35.438,2a5.4,5.4,0,1,0,5.4,5.4A5.4,5.4,0,0,0,35.438,2ZM18.36,13.88a7.318,7.318,0,0,0-3.307.776,8.632,8.632,0,0,1,.135,13.534A11.8,11.8,0,0,1,19.2,31.565a8.5,8.5,0,0,1-.81-3.611,8.671,8.671,0,0,1,7.256-8.539A7.492,7.492,0,0,0,18.36,13.88Zm17.078,0a7.508,7.508,0,0,0-7.29,5.5,8.674,8.674,0,0,1,7.526,8.572,8.586,8.586,0,0,1-.709,3.409,11.92,11.92,0,0,1,3.881-3.206,8.631,8.631,0,0,1,.034-13.4A7.2,7.2,0,0,0,35.438,13.88ZM9.754,14.994a6.48,6.48,0,1,0,6.48,6.48A6.482,6.482,0,0,0,9.754,14.994Zm34.56,0a6.48,6.48,0,1,0,6.48,6.48A6.482,6.482,0,0,0,44.314,14.994Zm-17.28,6.48a6.48,6.48,0,1,0,6.48,6.48A6.482,6.482,0,0,0,27.034,21.474ZM9.72,29A9.731,9.731,0,0,0,0,38.72V42.5a1.107,1.107,0,0,0,.439.877c.249.19,2.633,1.822,9.281,1.822a28.713,28.713,0,0,0,5.468-.473,11.854,11.854,0,0,1,3.949-8.37A9.711,9.711,0,0,0,9.72,29Zm34.56,0a9.733,9.733,0,0,0-9.416,7.324,11.876,11.876,0,0,1,4.016,8.438,28.907,28.907,0,0,0,5.4.439c6.649,0,9.032-1.633,9.281-1.822A1.1,1.1,0,0,0,54,42.5V38.72A9.728,9.728,0,0,0,44.28,29ZM27.034,35.514a9.731,9.731,0,0,0-9.72,9.72v3.78a1.038,1.038,0,0,0,.439.844c.249.19,2.632,1.856,9.281,1.856s9.032-1.666,9.281-1.856a1.044,1.044,0,0,0,.439-.844v-3.78A9.728,9.728,0,0,0,27.034,35.514Z" transform="translate(0 -2)" fill="#16999f"/>
</svg>
