<svg xmlns="http://www.w3.org/2000/svg" width="46" height="46" viewBox="0 0 46 46">
  <path id="icons8-lol" d="M25,2A23,23,0,1,0,48,25,23.025,23.025,0,0,0,25,2ZM10.271,21.682a1,1,0,0,1,.044-1.41A9.048,9.048,0,0,1,16,18a9.063,9.063,0,0,1,5.686,2.271,1,1,0,0,1-1.369,1.459A7.112,7.112,0,0,0,16,20a7.112,7.112,0,0,0-4.317,1.73A1,1,0,0,1,10.271,21.682ZM25,40C14.631,40,12,27,12,27a28.133,28.133,0,0,0,13,3,28.133,28.133,0,0,0,13-3S35.369,40,25,40ZM39.728,21.686a1,1,0,0,1-1.415.043A7.1,7.1,0,0,0,34,20a7.112,7.112,0,0,0-4.317,1.73,1,1,0,0,1-1.368-1.459A9.055,9.055,0,0,1,34,18a9.062,9.062,0,0,1,5.685,2.271A1,1,0,0,1,39.728,21.686Z" transform="translate(-2 -2)" fill="#16999f"/>
</svg>
