<svg xmlns="http://www.w3.org/2000/svg" width="54.26" height="47.064" viewBox="0 0 54.26 47.064">
  <path id="icons8-handshake_heart" d="M15.88,5.875A14.1,14.1,0,0,0,5.91,29.952L8.256,32.3a5.249,5.249,0,0,0,.82-.706l4.577-4.573a3.36,3.36,0,0,1,2.46-1.058,3.183,3.183,0,0,1,2.46,1.058l1.879,1.874a3.37,3.37,0,0,1,1.054,2.46,3.377,3.377,0,0,1,2.465,1.058l1.879,1.874A3.372,3.372,0,0,1,26.9,36.751a3.39,3.39,0,0,1,2.465,1.054l1.879,1.879A3.39,3.39,0,0,1,32.3,42.149,3.372,3.372,0,0,1,34.766,43.2l1.874,1.879a2.115,2.115,0,0,1,.586.82l1.759-1.759a1.064,1.064,0,0,0,.353-.82,1.081,1.081,0,0,0-.353-.825l-7.509-7.5a1.161,1.161,0,0,1,1.645-1.64l7.509,7.5a1.135,1.135,0,0,0,1.64,0l1.879-1.879a1.057,1.057,0,0,0,.348-.816,1.07,1.07,0,0,0-.348-.825l-7.509-7.5a1.161,1.161,0,0,1,1.645-1.64l3.281,3.281,4.343,4.105a1.135,1.135,0,0,0,1.64,0L49.428,33.7a1.057,1.057,0,0,0,.348-.816,2.579,2.579,0,0,0-.586-1.292L35.939,18.337,28.9,25.489a5.512,5.512,0,0,1-9.383-3.867,5.526,5.526,0,0,1,1.64-3.872l6.213-6.217L25.85,10.008A14.07,14.07,0,0,0,15.88,5.875Zm26.712.16a13.944,13.944,0,0,0-9.47,3.386C33,9.421,23.037,19.51,23.037,19.51a3.1,3.1,0,0,0,0,4.458,3.109,3.109,0,0,0,4.334,0l7.862-7.977a.976.976,0,0,1,.82-.353,1.3,1.3,0,0,1,.82.353L51.535,30.653,52,30.181a14.334,14.334,0,0,0-.115-20.054A13.668,13.668,0,0,0,42.592,6.035ZM16.114,28.307a1.064,1.064,0,0,0-.82.353l-4.577,4.573a1.135,1.135,0,0,0,0,1.64L12.6,36.751a1.271,1.271,0,0,0,.82.353,1.081,1.081,0,0,0,.825-.353l4.573-4.573a1.135,1.135,0,0,0,0-1.64L16.934,28.66A1.064,1.064,0,0,0,16.114,28.307Zm5.278,5.278a1.064,1.064,0,0,0-.82.353L16,38.511a1.127,1.127,0,0,0,0,1.64l1.874,1.879a1.271,1.271,0,0,0,.82.353,1.291,1.291,0,0,0,.825-.353l4.573-4.573a1.135,1.135,0,0,0,0-1.64l-1.879-1.879A1.271,1.271,0,0,0,21.392,33.585Zm5.278,5.278a1.064,1.064,0,0,0-.82.353l-4.573,4.573a1.127,1.127,0,0,0,0,1.64l1.874,1.879a1.271,1.271,0,0,0,.82.353,1.291,1.291,0,0,0,.825-.353l4.573-4.573a1.135,1.135,0,0,0,0-1.64L27.49,39.216A1.064,1.064,0,0,0,26.67,38.864Zm5.278,5.278a1.064,1.064,0,0,0-.82.353l-4.573,4.573a1.127,1.127,0,0,0,0,1.64l1.874,1.879a1.271,1.271,0,0,0,.82.353,1.291,1.291,0,0,0,.825-.353l4.573-4.573a1.135,1.135,0,0,0,0-1.64l-1.879-1.879A1.271,1.271,0,0,0,31.948,44.142Z" transform="translate(-1.776 -5.875)" fill="#16999f"/>
</svg>
