<svg xmlns="http://www.w3.org/2000/svg" width="48" height="54" viewBox="0 0 48 54">
  <g id="Groupe_328" data-name="Groupe 328" transform="translate(-1145.999 -1298)">
    <path id="Tracé_7120" data-name="Tracé 7120" d="M79.446,12.695,83.478,1.9A1.438,1.438,0,0,0,82.134.006C69.772-.264,73,8.915,63.859,2.976c-1.075-.81-2.419.54-1.881,1.62l3.762,8.1C57.409,17.824,51.228,31.053,51.228,40.5c0,11.879,9.675,13.5,21.5,13.5s21.5-1.62,21.5-13.5C94.227,30.783,88.046,17.554,79.446,12.695Z" transform="translate(1099.771 1298)" fill="#fff"/>
    <path id="Soustraction_1" data-name="Soustraction 1" d="M21.5,54c-5.169,0-11.015-.273-15.184-2.295C2.065,49.644,0,45.98,0,40.5A36.234,36.234,0,0,1,4.131,24.978C6.91,19.467,10.6,15.1,14.512,12.695L10.749,4.6a1.226,1.226,0,0,1,.083-1.212,1.325,1.325,0,0,1,1.1-.655,1.152,1.152,0,0,1,.7.247c2.1,1.367,3.662,2,4.905,2,1.362,0,2.256-.733,3.388-1.661.328-.269.668-.548,1.045-.829C23.618,1.259,25.906,0,30.372,0c.175,0,.354,0,.533.006a1.353,1.353,0,0,1,1.127.568A1.493,1.493,0,0,1,32.249,1.9l-4.031,10.8c4.029,2.276,7.8,6.567,10.615,12.081A36.185,36.185,0,0,1,43,40.5c0,5.478-2.066,9.143-6.316,11.2C32.513,53.727,26.668,54,21.5,54ZM18.122,27.867h0a5.019,5.019,0,0,0-4.871,4.989v.084a1.064,1.064,0,0,0,0,.2A8.021,8.021,0,0,0,14.7,37.446a12.034,12.034,0,0,0,2.967,2.937A17.707,17.707,0,0,0,21.914,42.6a17.547,17.547,0,0,0,4.241-2.215,12.032,12.032,0,0,0,2.965-2.937,8.024,8.024,0,0,0,1.452-4.306,1.239,1.239,0,0,0,0-.2v-.084A5.019,5.019,0,0,0,25.7,27.868a4.8,4.8,0,0,0-3.79,1.96,4.8,4.8,0,0,0-3.784-1.96Z" transform="translate(1146 1298)" fill="#16999f"/>
  </g>
</svg>
