<svg xmlns="http://www.w3.org/2000/svg" width="61" height="54.809" viewBox="0 0 61 54.809">
  <g id="Groupe_330" data-name="Groupe 330" transform="translate(-1140 -1573.366)">
    <path id="icons8-full_family" d="M11.769,2a6.577,6.577,0,1,0,6.577,6.577A6.577,6.577,0,0,0,11.769,2ZM46.846,2a6.577,6.577,0,1,0,6.577,6.577A6.577,6.577,0,0,0,46.846,2Zm6.581,8.774s-.169,3.111,1.644,4.924S60,17.342,60,17.342s.169-3.111-1.644-4.924S53.427,10.774,53.427,10.774ZM9.577,19.538A6.611,6.611,0,0,0,3,26.115V39.269a2.193,2.193,0,0,0,2.192,2.222V54.543a2.265,2.265,0,0,0,4.526.15l.959-14.4a1.094,1.094,0,0,1,2.184,0l.959,14.4a2.265,2.265,0,0,0,4.526-.15V41.855A2.193,2.193,0,0,0,22.02,43.08q.035-.034.069-.069l1.576-1.571-.929,13.021a2.193,2.193,0,1,0,4.376.308l.013-.158.844-5.93a1.356,1.356,0,0,1,2.685,0l.835,5.87.017.218a2.193,2.193,0,1,0,4.376-.308l-.929-13.025,1.533,1.533.034.039.009,0,.064.064a2.193,2.193,0,0,0,3.678-1.229v12.7a2.265,2.265,0,0,0,4.526.15l.736-11.039h2.629L48.9,54.692a2.265,2.265,0,0,0,4.526-.15V43.654h2.192a2.193,2.193,0,0,0,2.141-2.668L54.318,25.533a6.9,6.9,0,0,0-3.216-4.4,6.515,6.515,0,0,0-3.939-1.567,2.193,2.193,0,0,0-.317-.03,7.678,7.678,0,0,0-7.472,5.995l-2.6,11.694a11.424,11.424,0,0,0-6.907-2.342H28.751a11.413,11.413,0,0,0-6.508,2.047L20.958,25.387a6.6,6.6,0,0,0-6.534-5.849Zm19.731,4.385a4.385,4.385,0,1,0,4.385,4.385A4.385,4.385,0,0,0,29.308,23.923Z" transform="translate(1141 1571.366)" fill="#fff"/>
    <path id="icons8-full_family-2" data-name="icons8-full_family" d="M11.769,2a6.577,6.577,0,1,0,6.577,6.577A6.577,6.577,0,0,0,11.769,2ZM46.846,2a6.577,6.577,0,1,0,6.577,6.577A6.577,6.577,0,0,0,46.846,2Zm6.581,8.773s-.169,3.111,1.644,4.924S60,17.342,60,17.342s.169-3.111-1.644-4.924S53.427,10.773,53.427,10.773ZM9.577,19.538A6.611,6.611,0,0,0,3,26.115V39.269a2.193,2.193,0,0,0,2.192,2.222V54.543a2.265,2.265,0,0,0,4.526.15l.959-14.4a1.094,1.094,0,0,1,2.184,0l.959,14.4a2.265,2.265,0,0,0,4.526-.15V41.855A2.193,2.193,0,0,0,22.02,43.08q.035-.034.069-.069l1.576-1.571-.929,13.021a2.193,2.193,0,1,0,4.376.308l.013-.158.844-5.93a1.356,1.356,0,0,1,2.685,0l.835,5.87.017.218a2.193,2.193,0,1,0,4.376-.308l-.929-13.025,1.533,1.533.034.039.009,0,.064.064a2.193,2.193,0,0,0,3.678-1.229v12.7a2.265,2.265,0,0,0,4.526.15l.736-11.039h2.629L48.9,54.692a2.265,2.265,0,0,0,4.526-.15V43.654h2.192a2.193,2.193,0,0,0,2.141-2.668L54.318,25.533a6.9,6.9,0,0,0-3.216-4.4,6.515,6.515,0,0,0-3.939-1.567,2.192,2.192,0,0,0-.317-.03,7.678,7.678,0,0,0-7.472,5.995l-2.6,11.694a11.424,11.424,0,0,0-6.907-2.342H28.751a11.413,11.413,0,0,0-6.508,2.047L20.958,25.387a6.6,6.6,0,0,0-6.534-5.849Zm19.731,4.385a4.385,4.385,0,1,0,4.385,4.385A4.385,4.385,0,0,0,29.308,23.923Z" transform="translate(1137 1571.366)" fill="#16999f"/>
  </g>
</svg>
