<svg xmlns="http://www.w3.org/2000/svg" width="62.626" height="62.625" viewBox="0 0 62.626 62.625">
  <g id="linkedin" transform="translate(-381.779)">
    <path id="Tracé_7191" data-name="Tracé 7191" d="M439.769,0H386.4a4.571,4.571,0,0,0-4.622,4.514V58.106a4.574,4.574,0,0,0,4.622,4.519h53.368a4.583,4.583,0,0,0,4.636-4.519V4.514A4.58,4.58,0,0,0,439.769,0" transform="translate(0)" fill="#006087"/>
    <path id="Tracé_7192" data-name="Tracé 7192" d="M404.845,17.839a5.386,5.386,0,1,1-5.386,5.384,5.387,5.387,0,0,1,5.386-5.384ZM400.2,32.7h9.289V62.582H400.2Z" transform="translate(-9.135 -9.217)" fill="#fff"/>
    <path id="Tracé_7193" data-name="Tracé 7193" d="M432.263,47.783h8.911v4.083h.124a9.76,9.76,0,0,1,8.788-4.827c9.406,0,11.142,6.19,11.142,14.237V77.669h-9.282V63.136c0-3.467-.064-7.925-4.827-7.925-4.834,0-5.574,3.776-5.574,7.674V77.669h-9.282V47.783" transform="translate(-26.084 -24.305)" fill="#fff"/>
  </g>
</svg>
