<svg xmlns="http://www.w3.org/2000/svg" width="68" height="55.262" viewBox="0 0 68 55.262">
  <g id="twitter" transform="translate(0 -0.822)">
    <path id="Tracé_7197" data-name="Tracé 7197" d="M68,7.364a27.894,27.894,0,0,1-8.013,2.2,13.993,13.993,0,0,0,6.134-7.718,27.939,27.939,0,0,1-8.859,3.385A13.964,13.964,0,0,0,33.489,17.952,39.607,39.607,0,0,1,4.734,3.376,13.966,13.966,0,0,0,9.051,22a13.9,13.9,0,0,1-6.319-1.745c0,.058,0,.117,0,.175a13.959,13.959,0,0,0,11.191,13.68,13.985,13.985,0,0,1-6.3.239,13.965,13.965,0,0,0,13.032,9.689A27.992,27.992,0,0,1,3.328,50.011,28.378,28.378,0,0,1,0,49.816a39.488,39.488,0,0,0,21.386,6.268c25.661,0,39.693-21.258,39.693-39.694q0-.907-.04-1.8A28.355,28.355,0,0,0,68,7.364" transform="translate(0 0)" fill="#55acee"/>
  </g>
</svg>
