<svg xmlns="http://www.w3.org/2000/svg" width="338.6" height="68.05" viewBox="0 0 338.6 68.05">
  <g id="Groupe_312" data-name="Groupe 312" transform="translate(-141.682 -109.2)">
    <g id="Groupe_306" data-name="Groupe 306" transform="translate(141.682 109.2)">
      <path id="Tracé_6981" data-name="Tracé 6981" d="M164.3,147.332l.385,6.919c.642-.036,1.277-.091,1.911-.162l-.782-6.884C165.311,147.261,164.808,147.3,164.3,147.332Z" transform="translate(-128.637 -86.254)" fill="#fff"/>
      <path id="Tracé_6982" data-name="Tracé 6982" d="M159.714,153.908c.631.1,1.261.194,1.9.263l.754-6.887c-.506-.055-1.008-.125-1.507-.21Z" transform="translate(-131.282 -86.329)" fill="#fff"/>
      <path id="Tracé_6983" data-name="Tracé 6983" d="M166.217,147.178l1.164,6.829c.629-.106,1.254-.232,1.872-.372l-1.539-6.755C167.22,146.994,166.722,147.091,166.217,147.178Z" transform="translate(-127.531 -86.441)" fill="#fff"/>
      <path id="Tracé_6984" data-name="Tracé 6984" d="M162.5,147.287l-.38,6.917q.929.05,1.873.051v0l.033,0V150.59l.536-3.217-.569-.047Q163.244,147.326,162.5,147.287Z" transform="translate(-129.892 -86.206)" fill="#fff"/>
      <path id="Tracé_6985" data-name="Tracé 6985" d="M157.351,153.311c.61.173,1.228.333,1.85.473l1.533-6.755q-.745-.17-1.477-.38Z" transform="translate(-132.645 -86.574)" fill="#fff"/>
      <path id="Tracé_6986" data-name="Tracé 6986" d="M148.648,129.282l-6.917-.366q-.05.908-.049,1.831v.069l6.927-.069C148.609,130.255,148.623,129.766,148.648,129.282Z" transform="translate(-141.682 -96.72)" fill="#fff"/>
      <path id="Tracé_6987" data-name="Tracé 6987" d="M148.632,131.081l-6.914.405q.057.958.162,1.9l6.884-.782Q148.679,131.85,148.632,131.081Z" transform="translate(-141.661 -95.48)" fill="#fff"/>
      <path id="Tracé_6988" data-name="Tracé 6988" d="M148.818,133l-6.826,1.181c.107.627.232,1.247.372,1.864l6.755-1.539C149.005,134.007,148.906,133.505,148.818,133Z" transform="translate(-141.503 -94.382)" fill="#fff"/>
      <path id="Tracé_6989" data-name="Tracé 6989" d="M154.826,144.149,150.81,149.8q.785.558,1.6,1.066l3.68-5.869Q155.448,144.59,154.826,144.149Z" transform="translate(-136.417 -88.016)" fill="#fff"/>
      <path id="Tracé_6990" data-name="Tracé 6990" d="M157.694,146.013l-2.632,6.408q.882.362,1.783.68l2.285-6.542Q158.4,146.305,157.694,146.013Z" transform="translate(-133.965 -86.941)" fill="#fff"/>
      <path id="Tracé_6991" data-name="Tracé 6991" d="M151.328,140.068l-5.64,4.026q.556.778,1.15,1.522l5.411-4.327C151.932,140.891,151.623,140.484,151.328,140.068Z" transform="translate(-139.371 -90.337)" fill="#fff"/>
      <path id="Tracé_6992" data-name="Tracé 6992" d="M152.361,141.579,147.2,146.2q.639.714,1.318,1.389l4.888-4.908Q152.867,142.146,152.361,141.579Z" transform="translate(-138.498 -89.499)" fill="#fff"/>
      <path id="Tracé_6993" data-name="Tracé 6993" d="M149.735,136.7l-6.4,2.658q.367.885.784,1.744l6.238-3.016C150.139,137.634,149.929,137.174,149.735,136.7Z" transform="translate(-140.727 -92.262)" fill="#fff"/>
      <path id="Tracé_6994" data-name="Tracé 6994" d="M150.448,138.436l-6.052,3.373q.464.83.97,1.635l5.862-3.691C150.959,139.322,150.7,138.882,150.448,138.436Z" transform="translate(-140.117 -91.271)" fill="#fff"/>
      <path id="Tracé_6995" data-name="Tracé 6995" d="M156.218,145.176l-3.349,6.066c.56.311,1.126.6,1.7.88l3-6.244Q156.887,145.547,156.218,145.176Z" transform="translate(-135.23 -87.424)" fill="#fff"/>
      <path id="Tracé_6996" data-name="Tracé 6996" d="M148.905,127.649l-6.832-1.146c-.106.631-.194,1.261-.263,1.9l6.887.755C148.754,128.651,148.822,128.148,148.905,127.649Z" transform="translate(-141.608 -98.104)" fill="#fff"/>
      <path id="Tracé_6997" data-name="Tracé 6997" d="M153.53,142.944l-4.614,5.166c.478.427.965.837,1.463,1.235l4.317-5.419Q154.1,143.452,153.53,142.944Z" transform="translate(-137.51 -88.711)" fill="#fff"/>
      <path id="Tracé_6998" data-name="Tracé 6998" d="M170.382,116.72,173,110.306q-.882-.362-1.786-.675l-2.263,6.548C169.431,116.345,169.907,116.526,170.382,116.72Z" transform="translate(-125.956 -107.766)" fill="#fff"/>
      <path id="Tracé_6999" data-name="Tracé 6999" d="M149.346,126.03l-6.667-1.887q-.26.913-.472,1.846l6.76,1.526C149.081,127.014,149.207,126.521,149.346,126.03Z" transform="translate(-141.379 -99.456)" fill="#fff"/>
      <path id="Tracé_7000" data-name="Tracé 7000" d="M164.776,115.413l.372-6.917c-.594-.033-1.2-.047-1.8-.047h-.1l.1,6.927C163.828,115.375,164.3,115.387,164.776,115.413Z" transform="translate(-129.245 -108.448)" fill="#fff"/>
      <path id="Tracé_7001" data-name="Tracé 7001" d="M163.138,115.4l-.427-6.914q-.951.059-1.889.164l.782,6.884Q162.366,115.449,163.138,115.4Z" transform="translate(-130.643 -108.426)" fill="#fff"/>
      <path id="Tracé_7002" data-name="Tracé 7002" d="M161.476,115.59l-1.164-6.829c-.632.107-1.26.235-1.883.378l1.559,6.749Q160.725,115.718,161.476,115.59Z" transform="translate(-132.022 -108.267)" fill="#fff"/>
      <path id="Tracé_7003" data-name="Tracé 7003" d="M159.857,115.96l-1.932-6.654c-.617.178-1.224.375-1.821.585l2.3,6.536C158.884,116.258,159.366,116.1,159.857,115.96Z" transform="translate(-133.364 -107.953)" fill="#fff"/>
      <path id="Tracé_7004" data-name="Tracé 7004" d="M172.094,117.5l3.332-6.072c-.56-.307-1.129-.6-1.7-.875l-2.985,6.252C171.195,117.026,171.649,117.257,172.094,117.5Z" transform="translate(-124.924 -107.234)" fill="#fff"/>
      <path id="Tracé_7005" data-name="Tracé 7005" d="M170.455,109.436c-.613-.172-1.231-.33-1.856-.468l-1.509,6.763c.5.11.99.235,1.477.374Z" transform="translate(-127.027 -108.148)" fill="#fff"/>
      <path id="Tracé_7006" data-name="Tracé 7006" d="M149.189,134.884l-6.656,1.932q.27.922.585,1.82l6.536-2.3C149.484,135.858,149.331,135.374,149.189,134.884Z" transform="translate(-141.191 -93.304)" fill="#fff"/>
      <path id="Tracé_7007" data-name="Tracé 7007" d="M167.824,108.832c-.628-.1-1.255-.189-1.889-.259l-.754,6.887c.509.057,1.014.126,1.517.208Z" transform="translate(-128.128 -108.376)" fill="#fff"/>
      <path id="Tracé_7008" data-name="Tracé 7008" d="M152.779,120.3l-5.186-4.593q-.632.712-1.224,1.454l5.419,4.317C152.108,121.075,152.438,120.684,152.779,120.3Z" transform="translate(-138.979 -104.291)" fill="#fff"/>
      <path id="Tracé_7009" data-name="Tracé 7009" d="M150.745,123l-6.069-3.34c-.307.561-.6,1.126-.877,1.7l6.246,3C150.265,123.9,150.5,123.443,150.745,123Z" transform="translate(-140.461 -102.028)" fill="#fff"/>
      <path id="Tracé_7010" data-name="Tracé 7010" d="M151.685,121.6l-5.656-4q-.553.78-1.06,1.591l5.869,3.682Q151.246,122.224,151.685,121.6Z" transform="translate(-139.786 -103.207)" fill="#fff"/>
      <path id="Tracé_7011" data-name="Tracé 7011" d="M158.282,116.5l-2.676-6.389q-.885.367-1.738.782l3.024,6.235Q157.574,116.8,158.282,116.5Z" transform="translate(-134.653 -107.487)" fill="#fff"/>
      <path id="Tracé_7012" data-name="Tracé 7012" d="M149.959,124.48l-6.406-2.632c-.243.588-.467,1.183-.68,1.785l6.544,2.283Q149.667,125.19,149.959,124.48Z" transform="translate(-140.995 -100.772)" fill="#fff"/>
      <path id="Tracé_7013" data-name="Tracé 7013" d="M156.768,117.224l-3.373-6.052c-.558.312-1.108.639-1.646.979l3.715,5.85Q156.1,117.594,156.768,117.224Z" transform="translate(-135.876 -106.877)" fill="#fff"/>
      <path id="Tracé_7014" data-name="Tracé 7014" d="M155.337,118.1l-4.037-5.632c-.516.371-1.023.755-1.518,1.153l4.336,5.4C154.515,118.7,154.922,118.4,155.337,118.1Z" transform="translate(-137.01 -106.129)" fill="#fff"/>
      <path id="Tracé_7015" data-name="Tracé 7015" d="M154,119.133l-4.637-5.148q-.707.639-1.38,1.313l4.908,4.89C153.249,119.825,153.618,119.475,154,119.133Z" transform="translate(-138.049 -105.254)" fill="#fff"/>
    </g>
    <path id="Tracé_7016" data-name="Tracé 7016" d="M192.026,125.194h4.27l18.4,40.659h-4.9l-4.729-10.67H183.089l-4.787,10.67H173.63Zm11.247,25.894L194.1,130.5l-9.227,20.588Z" transform="translate(18.427 10.251)" fill="#fff"/>
    <path id="Tracé_7017" data-name="Tracé 7017" d="M204.719,125.376h4.555v36.16H232v4.212H204.719Z" transform="translate(36.358 10.356)" fill="#fff"/>
    <path id="Tracé_7018" data-name="Tracé 7018" d="M235.425,129.588H221.871v-4.212h31.72v4.212H240.039v36.16h-4.614Z" transform="translate(46.251 10.356)" fill="#0d999f"/>
    <path id="Tracé_7019" data-name="Tracé 7019" d="M244.51,145.929v-.115c0-11.132,8.363-20.876,20.648-20.876s20.53,9.631,20.53,20.761v.115c0,11.132-8.362,20.876-20.645,20.876S244.51,157.06,244.51,145.929Zm36.449,0v-.115c0-9.169-6.689-16.668-15.916-16.668s-15.8,7.382-15.8,16.553v.115c0,9.169,6.69,16.668,15.919,16.668S280.959,155.1,280.959,145.929Z" transform="translate(59.308 10.103)" fill="#0d999f"/>
    <path id="Tracé_7020" data-name="Tracé 7020" d="M276.732,125.376h17.359c4.959,0,8.94,1.5,11.476,4.038a11.154,11.154,0,0,1,3.116,7.958v.117c0,6.689-4.614,10.612-10.959,11.764l12.4,16.495h-5.593L292.821,150.06H281.287v15.687h-4.555Zm16.953,20.588c6.056,0,10.383-3.113,10.383-8.3v-.115c0-4.961-3.807-7.958-10.325-7.958H281.287v16.376Z" transform="translate(77.893 10.356)" fill="#fff"/>
    <path id="Tracé_7021" data-name="Tracé 7021" d="M303.431,125.376h4.555v40.372h-4.555Z" transform="translate(93.292 10.356)" fill="#fff"/>
    <path id="Tracé_7022" data-name="Tracé 7022" d="M312.134,160.075l2.826-3.344c4.21,3.8,8.248,5.709,13.841,5.709,5.421,0,9-2.885,9-6.865v-.114c0-3.75-2.018-5.883-10.5-7.671-9.283-2.018-13.552-5.016-13.552-11.649v-.117c0-6.342,5.594-11.014,13.265-11.014a21.05,21.05,0,0,1,14.186,4.961l-2.652,3.518A17.732,17.732,0,0,0,326.9,129.1c-5.249,0-8.593,2.885-8.593,6.518v.115c0,3.808,2.075,5.941,10.957,7.843,9,1.962,13.149,5.248,13.149,11.419v.115c0,6.92-5.768,11.419-13.783,11.419A23.622,23.622,0,0,1,312.134,160.075Z" transform="translate(98.312 10.145)" fill="#fff"/>
    <path id="Tracé_7023" data-name="Tracé 7023" d="M337.224,125.376h29.181v4.153H341.779v13.784H363.81v4.152H341.779v14.13h24.915v4.153h-29.47Z" transform="translate(112.783 10.356)" fill="#fff"/>
    <g id="Groupe_488" data-name="Groupe 488" transform="translate(-639.686 94.145)">
      <path id="Tracé_7208" data-name="Tracé 7208" d="M9.642-8.707a4,4,0,0,1,3.516-1.99,3.506,3.506,0,0,1,2.715,1.082,4.171,4.171,0,0,1,1,2.937V-.5H15.38V-6.33a3.281,3.281,0,0,0-.686-2.232,2.4,2.4,0,0,0-1.9-.783,2.612,2.612,0,0,0-1.971.831,3.141,3.141,0,0,0-.792,2.261V-.5H8.56V-6.369a3.226,3.226,0,0,0-.686-2.183A2.361,2.361,0,0,0,5.99-9.345a2.56,2.56,0,0,0-1.42.406,2.854,2.854,0,0,0-1,1.121A3.5,3.5,0,0,0,3.208-6.2V-.5H1.72v-9.989H3.208V-8.8a4.977,4.977,0,0,1,1.333-1.381A3.3,3.3,0,0,1,6.434-10.7a3.425,3.425,0,0,1,1.961.541A3.642,3.642,0,0,1,9.642-8.707ZM21.177-4.939a3.7,3.7,0,0,0,1.15,2.473,3.392,3.392,0,0,0,2.367.908,3.924,3.924,0,0,0,1.739-.367,5.063,5.063,0,0,0,1.41-1.043l.927.831a5.885,5.885,0,0,1-1.8,1.391,5.212,5.212,0,0,1-2.319.483A4.941,4.941,0,0,1,22.143-.92a4.785,4.785,0,0,1-1.807-1.845A5.453,5.453,0,0,1,19.67-5.48a5.644,5.644,0,0,1,.618-2.628A4.791,4.791,0,0,1,22.007-10a4.5,4.5,0,0,1,2.454-.7,4.448,4.448,0,0,1,2.492.7,4.4,4.4,0,0,1,1.613,1.9,6.422,6.422,0,0,1,.551,2.7,4.4,4.4,0,0,1-.019.464Zm6.434-1.1a4.121,4.121,0,0,0-.947-2.434,2.8,2.8,0,0,0-2.241-.966,2.881,2.881,0,0,0-2.193.966,4.094,4.094,0,0,0-1.053,2.434ZM38.778-3.3a2.654,2.654,0,0,1-1,2.193,3.961,3.961,0,0,1-2.55.8A6.5,6.5,0,0,1,33.03-.7a6.506,6.506,0,0,1-1.942-1.072l.754-1.063A5.722,5.722,0,0,0,35.3-1.558a2.413,2.413,0,0,0,1.488-.435,1.368,1.368,0,0,0,.58-1.15v-.039a1.15,1.15,0,0,0-.628-1.043,8.314,8.314,0,0,0-1.865-.715,13.069,13.069,0,0,1-1.7-.589,3.169,3.169,0,0,1-1.14-.84,2.062,2.062,0,0,1-.464-1.391V-7.8a2.557,2.557,0,0,1,.956-2.067,3.7,3.7,0,0,1,2.444-.792,6.223,6.223,0,0,1,1.865.3,6.983,6.983,0,0,1,1.729.8L37.89-8.436a6.372,6.372,0,0,0-1.478-.715A4.718,4.718,0,0,0,34.933-9.4a2.248,2.248,0,0,0-1.4.406A1.257,1.257,0,0,0,33-7.953v.039a1.061,1.061,0,0,0,.628.976,11.585,11.585,0,0,0,1.942.744,11.22,11.22,0,0,1,1.652.609,3.154,3.154,0,0,1,1.111.869,2.129,2.129,0,0,1,.444,1.381ZM56.3-2.2a6.37,6.37,0,0,1-1.8,1.43,4.879,4.879,0,0,1-2.28.5,4.934,4.934,0,0,1-2.6-.705,5.13,5.13,0,0,1-1.845-1.9,5.18,5.18,0,0,1-.676-2.589,5.217,5.217,0,0,1,.676-2.608,5.205,5.205,0,0,1,1.845-1.913,4.883,4.883,0,0,1,2.6-.715,5,5,0,0,1,2.261.473,6.283,6.283,0,0,1,1.739,1.3L55.24-7.876a6.263,6.263,0,0,0-1.4-1.111,3.278,3.278,0,0,0-1.633-.4,3.287,3.287,0,0,0-1.816.522,3.723,3.723,0,0,0-1.285,1.41A4.086,4.086,0,0,0,48.632-5.5a4.059,4.059,0,0,0,.483,1.971,3.718,3.718,0,0,0,1.324,1.41A3.465,3.465,0,0,0,52.3-1.6a4.13,4.13,0,0,0,3.053-1.488Zm6.26-7.11a5.908,5.908,0,0,0-1.546.193,9.992,9.992,0,0,0-1.488.541l-.444-1.217a10.662,10.662,0,0,1,1.758-.618,7.725,7.725,0,0,1,1.874-.213A4.457,4.457,0,0,1,65.867-9.6a3.891,3.891,0,0,1,1.1,2.995V-.5h-1.43V-2A4.329,4.329,0,0,1,64.051-.756a4.536,4.536,0,0,1-2.125.473A4.638,4.638,0,0,1,60.109-.64,3.29,3.29,0,0,1,58.728-1.7a2.76,2.76,0,0,1-.531-1.71,2.792,2.792,0,0,1,1.159-2.406,5.192,5.192,0,0,1,3.111-.84,11.264,11.264,0,0,1,3.072.425v-.348a2.589,2.589,0,0,0-.773-2.029A3.182,3.182,0,0,0,62.563-9.306Zm.058,3.748A3.588,3.588,0,0,0,60.467-5,1.793,1.793,0,0,0,59.7-3.471,1.736,1.736,0,0,0,60.428-2a2.9,2.9,0,0,0,1.787.541A4.049,4.049,0,0,0,63.9-1.809a2.952,2.952,0,0,0,1.217-.966,2.326,2.326,0,0,0,.444-1.391v-.966A10.517,10.517,0,0,0,62.621-5.558ZM70.465-14.6h1.488V-.5H70.465ZM85.4-5.5a5.159,5.159,0,0,1-.686,2.608A5.209,5.209,0,0,1,82.831-.978a5.1,5.1,0,0,1-2.666.715,5.056,5.056,0,0,1-2.647-.705,5.128,5.128,0,0,1-1.855-1.893,5.164,5.164,0,0,1-.676-2.6,5.217,5.217,0,0,1,.676-2.608,5.134,5.134,0,0,1,1.874-1.913A5.1,5.1,0,0,1,80.2-10.7a5.106,5.106,0,0,1,2.657.705A5.105,5.105,0,0,1,84.725-8.1,5.164,5.164,0,0,1,85.4-5.5Zm-1.526.039a4.051,4.051,0,0,0-.493-1.98,3.773,3.773,0,0,0-1.333-1.42,3.5,3.5,0,0,0-1.884-.522,3.535,3.535,0,0,0-1.893.512,3.528,3.528,0,0,0-1.295,1.4A4.2,4.2,0,0,0,76.513-5.5,4.076,4.076,0,0,0,77-3.539a3.675,3.675,0,0,0,1.333,1.42A3.514,3.514,0,0,0,80.2-1.6,3.535,3.535,0,0,0,82.1-2.109a3.6,3.6,0,0,0,1.3-1.4A4.086,4.086,0,0,0,83.875-5.461ZM88.28-.5v-9.989h1.488v2.608A5.046,5.046,0,0,1,91.41-9.944a3.75,3.75,0,0,1,2.434-.715v1.6h-.116a3.947,3.947,0,0,0-2.019.522,3.632,3.632,0,0,0-1.42,1.555,5.5,5.5,0,0,0-.522,2.5V-.5ZM96.337-14.31h1.7v1.642h-1.7Zm.1,3.826h1.488V-.5H96.433Zm6.028,5.545a3.7,3.7,0,0,0,1.15,2.473,3.392,3.392,0,0,0,2.367.908,3.924,3.924,0,0,0,1.739-.367,5.063,5.063,0,0,0,1.41-1.043l.927.831a5.885,5.885,0,0,1-1.8,1.391,5.212,5.212,0,0,1-2.319.483,4.941,4.941,0,0,1-2.512-.657,4.785,4.785,0,0,1-1.807-1.845,5.453,5.453,0,0,1-.667-2.715,5.644,5.644,0,0,1,.618-2.628A4.791,4.791,0,0,1,103.293-10a4.5,4.5,0,0,1,2.454-.7,4.448,4.448,0,0,1,2.492.7,4.4,4.4,0,0,1,1.613,1.9,6.422,6.422,0,0,1,.551,2.7,4.4,4.4,0,0,1-.019.464Zm6.434-1.1a4.121,4.121,0,0,0-.947-2.434,2.8,2.8,0,0,0-2.241-.966,2.881,2.881,0,0,0-2.193.966,4.094,4.094,0,0,0-1.053,2.434ZM120.063-3.3a2.654,2.654,0,0,1-1,2.193,3.961,3.961,0,0,1-2.55.8,6.5,6.5,0,0,1-2.193-.4,6.506,6.506,0,0,1-1.942-1.072l.754-1.063a5.722,5.722,0,0,0,3.459,1.275,2.413,2.413,0,0,0,1.488-.435,1.368,1.368,0,0,0,.58-1.15v-.039a1.15,1.15,0,0,0-.628-1.043,8.314,8.314,0,0,0-1.865-.715,13.069,13.069,0,0,1-1.7-.589,3.169,3.169,0,0,1-1.14-.84,2.062,2.062,0,0,1-.464-1.391V-7.8a2.557,2.557,0,0,1,.956-2.067,3.7,3.7,0,0,1,2.444-.792,6.222,6.222,0,0,1,1.865.3,6.983,6.983,0,0,1,1.729.8l-.676,1.121a6.372,6.372,0,0,0-1.478-.715,4.718,4.718,0,0,0-1.478-.251,2.248,2.248,0,0,0-1.4.406,1.257,1.257,0,0,0-.531,1.043v.039a1.061,1.061,0,0,0,.628.976,11.585,11.585,0,0,0,1.942.744,11.22,11.22,0,0,1,1.652.609,3.154,3.154,0,0,1,1.111.869,2.129,2.129,0,0,1,.444,1.381Z" transform="translate(844 30)" fill="#16999f"/>
      <path id="Tracé_7209" data-name="Tracé 7209" d="M143.566-5.363A5.456,5.456,0,0,1,142.89-2.6a4.841,4.841,0,0,1-1.768,1.816,4.542,4.542,0,0,1-2.328.638,4.466,4.466,0,0,1-3.826-2.125v5H133.48V-10.347h1.488v2.009a4.485,4.485,0,0,1,3.826-2.222,4.612,4.612,0,0,1,2.319.628,4.745,4.745,0,0,1,1.778,1.807A5.456,5.456,0,0,1,143.566-5.363Zm-1.526.019a4.234,4.234,0,0,0-.473-2.038,3.45,3.45,0,0,0-1.285-1.362,3.377,3.377,0,0,0-1.758-.483,3.393,3.393,0,0,0-1.758.493,3.76,3.76,0,0,0-1.343,1.372,3.9,3.9,0,0,0-.512,2,3.952,3.952,0,0,0,.512,2.009,3.739,3.739,0,0,0,1.343,1.381,3.393,3.393,0,0,0,1.758.493,3.468,3.468,0,0,0,1.768-.464,3.335,3.335,0,0,0,1.275-1.343A4.276,4.276,0,0,0,142.039-5.343ZM156.3-5.363a5.159,5.159,0,0,1-.686,2.608,5.209,5.209,0,0,1-1.884,1.913,5.1,5.1,0,0,1-2.666.715,5.056,5.056,0,0,1-2.647-.705,5.128,5.128,0,0,1-1.855-1.893,5.164,5.164,0,0,1-.676-2.6,5.217,5.217,0,0,1,.676-2.608,5.134,5.134,0,0,1,1.874-1.913,5.1,5.1,0,0,1,2.666-.715,5.106,5.106,0,0,1,2.657.705,5.105,5.105,0,0,1,1.865,1.893A5.164,5.164,0,0,1,156.3-5.363Zm-1.526.039a4.051,4.051,0,0,0-.493-1.98,3.773,3.773,0,0,0-1.333-1.42,3.5,3.5,0,0,0-1.884-.522,3.535,3.535,0,0,0-1.894.512,3.528,3.528,0,0,0-1.295,1.4,4.2,4.2,0,0,0-.464,1.971,4.076,4.076,0,0,0,.483,1.961,3.675,3.675,0,0,0,1.333,1.42,3.514,3.514,0,0,0,1.874.522,3.535,3.535,0,0,0,1.893-.512,3.6,3.6,0,0,0,1.3-1.4A4.086,4.086,0,0,0,154.772-5.324Zm12.965-5.024V-.358h-1.468V-2.1a3.823,3.823,0,0,1-3.42,1.951,3.655,3.655,0,0,1-2.8-1.092,4.078,4.078,0,0,1-1.024-2.908v-6.2h1.488v5.835a3.179,3.179,0,0,0,.725,2.212,2.607,2.607,0,0,0,2.038.8,2.963,2.963,0,0,0,1.526-.4A2.889,2.889,0,0,0,165.872-3a3.278,3.278,0,0,0,.4-1.633v-5.719Zm3.536,9.989v-9.989h1.488v2.608A5.046,5.046,0,0,1,174.4-9.806a3.75,3.75,0,0,1,2.434-.715v1.6h-.116A3.947,3.947,0,0,0,174.7-8.4a3.632,3.632,0,0,0-1.42,1.555,5.5,5.5,0,0,0-.522,2.5v3.98Zm22.567-9.989V-.358h-1.468V-2.1a3.823,3.823,0,0,1-3.42,1.951,3.655,3.655,0,0,1-2.8-1.092,4.078,4.078,0,0,1-1.024-2.908v-6.2h1.488v5.835a3.179,3.179,0,0,0,.725,2.212,2.607,2.607,0,0,0,2.038.8,2.963,2.963,0,0,0,1.526-.4A2.889,2.889,0,0,0,191.975-3a3.277,3.277,0,0,0,.4-1.633v-5.719Zm3.536,9.989v-9.989h1.488v1.739a3.767,3.767,0,0,1,3.42-1.951,3.655,3.655,0,0,1,2.8,1.092,4.078,4.078,0,0,1,1.024,2.908v6.2h-1.488V-6.193a3.179,3.179,0,0,0-.725-2.212,2.607,2.607,0,0,0-2.038-.8,2.874,2.874,0,0,0-2.145.869,3.1,3.1,0,0,0-.85,2.261V-.358ZM210.36-4.8a3.7,3.7,0,0,0,1.15,2.473,3.392,3.392,0,0,0,2.367.908,3.924,3.924,0,0,0,1.739-.367,5.063,5.063,0,0,0,1.41-1.043l.927.831a5.885,5.885,0,0,1-1.8,1.391,5.212,5.212,0,0,1-2.319.483,4.941,4.941,0,0,1-2.512-.657,4.785,4.785,0,0,1-1.807-1.845,5.453,5.453,0,0,1-.667-2.715,5.644,5.644,0,0,1,.618-2.628,4.791,4.791,0,0,1,1.72-1.893,4.5,4.5,0,0,1,2.454-.7,4.448,4.448,0,0,1,2.492.7,4.4,4.4,0,0,1,1.613,1.9,6.422,6.422,0,0,1,.551,2.7,4.394,4.394,0,0,1-.019.464Zm6.434-1.1a4.121,4.121,0,0,0-.947-2.434,2.8,2.8,0,0,0-2.241-.966,2.881,2.881,0,0,0-2.193.966A4.094,4.094,0,0,0,210.36-5.9Zm18.877,3.845a6.37,6.37,0,0,1-1.8,1.43,4.879,4.879,0,0,1-2.28.5A4.934,4.934,0,0,1,229-.832a5.13,5.13,0,0,1-1.845-1.9,5.18,5.18,0,0,1-.676-2.589,5.216,5.216,0,0,1,.676-2.608A5.2,5.2,0,0,1,229-9.845a4.883,4.883,0,0,1,2.6-.715,5,5,0,0,1,2.261.473,6.283,6.283,0,0,1,1.739,1.3l-.985,1.043a6.263,6.263,0,0,0-1.4-1.111,3.278,3.278,0,0,0-1.633-.4,3.287,3.287,0,0,0-1.816.522,3.723,3.723,0,0,0-1.285,1.41A4.086,4.086,0,0,0,228-5.363a4.059,4.059,0,0,0,.483,1.971,3.718,3.718,0,0,0,1.324,1.41,3.465,3.465,0,0,0,1.865.522,4.13,4.13,0,0,0,3.053-1.488Zm6.26-7.11a5.908,5.908,0,0,0-1.546.193,9.992,9.992,0,0,0-1.488.541l-.444-1.217a10.663,10.663,0,0,1,1.758-.618,7.725,7.725,0,0,1,1.874-.213,4.457,4.457,0,0,1,3.149,1.024,3.891,3.891,0,0,1,1.1,2.995V-.358h-1.43V-1.865a4.329,4.329,0,0,1-1.488,1.246,4.536,4.536,0,0,1-2.125.473A4.638,4.638,0,0,1,239.477-.5,3.29,3.29,0,0,1,238.1-1.566a2.76,2.76,0,0,1-.531-1.71,2.792,2.792,0,0,1,1.159-2.406,5.192,5.192,0,0,1,3.111-.84,11.264,11.264,0,0,1,3.072.425v-.348a2.589,2.589,0,0,0-.773-2.029A3.182,3.182,0,0,0,241.931-9.169Zm.058,3.748a3.588,3.588,0,0,0-2.154.56,1.793,1.793,0,0,0-.763,1.526,1.736,1.736,0,0,0,.725,1.468,2.9,2.9,0,0,0,1.787.541,4.048,4.048,0,0,0,1.681-.348,2.952,2.952,0,0,0,1.217-.966,2.326,2.326,0,0,0,.444-1.391V-5A10.518,10.518,0,0,0,241.989-5.421Zm16.269-4.927V-.358h-1.468V-2.1a3.823,3.823,0,0,1-3.42,1.951,3.655,3.655,0,0,1-2.8-1.092,4.078,4.078,0,0,1-1.024-2.908v-6.2h1.488v5.835a3.179,3.179,0,0,0,.725,2.212,2.607,2.607,0,0,0,2.038.8,2.964,2.964,0,0,0,1.526-.4A2.889,2.889,0,0,0,256.393-3a3.277,3.277,0,0,0,.4-1.633v-5.719ZM268.652-3.16a2.654,2.654,0,0,1-1,2.193,3.961,3.961,0,0,1-2.55.8,6.5,6.5,0,0,1-2.193-.4,6.507,6.507,0,0,1-1.942-1.072l.754-1.063a5.722,5.722,0,0,0,3.459,1.275,2.413,2.413,0,0,0,1.488-.435,1.368,1.368,0,0,0,.58-1.15v-.039a1.15,1.15,0,0,0-.628-1.043,8.314,8.314,0,0,0-1.865-.715,13.069,13.069,0,0,1-1.7-.589,3.169,3.169,0,0,1-1.14-.84,2.062,2.062,0,0,1-.464-1.391v-.039a2.556,2.556,0,0,1,.956-2.067,3.7,3.7,0,0,1,2.444-.792,6.222,6.222,0,0,1,1.865.3,6.983,6.983,0,0,1,1.729.8L267.764-8.3a6.372,6.372,0,0,0-1.478-.715,4.718,4.718,0,0,0-1.478-.251,2.248,2.248,0,0,0-1.4.406,1.257,1.257,0,0,0-.531,1.043v.039a1.061,1.061,0,0,0,.628.976,11.586,11.586,0,0,0,1.942.744,11.22,11.22,0,0,1,1.652.609,3.154,3.154,0,0,1,1.111.869,2.129,2.129,0,0,1,.444,1.381ZM272.5-4.8a3.7,3.7,0,0,0,1.15,2.473,3.392,3.392,0,0,0,2.367.908,3.924,3.924,0,0,0,1.739-.367,5.064,5.064,0,0,0,1.41-1.043l.927.831a5.886,5.886,0,0,1-1.8,1.391,5.212,5.212,0,0,1-2.319.483,4.941,4.941,0,0,1-2.512-.657,4.785,4.785,0,0,1-1.807-1.845,5.453,5.453,0,0,1-.667-2.715,5.644,5.644,0,0,1,.618-2.628,4.791,4.791,0,0,1,1.72-1.893,4.5,4.5,0,0,1,2.454-.7,4.448,4.448,0,0,1,2.492.7,4.4,4.4,0,0,1,1.613,1.9,6.422,6.422,0,0,1,.551,2.7,4.4,4.4,0,0,1-.019.464Zm6.434-1.1a4.121,4.121,0,0,0-.947-2.434,2.8,2.8,0,0,0-2.241-.966,2.881,2.881,0,0,0-2.193.966A4.094,4.094,0,0,0,272.5-5.9Z" transform="translate(839.529 29.863)" fill="#fff"/>
    </g>
  </g>
</svg>
