<svg xmlns="http://www.w3.org/2000/svg" width="337.924" height="69.253" viewBox="0 0 337.924 69.253">
  <g id="Groupe_486" data-name="Groupe 486" transform="translate(-141.682 -107.997)">
    <g id="Groupe_306" data-name="Groupe 306" transform="translate(141.682 109.2)">
      <path id="Tracé_6981" data-name="Tracé 6981" d="M164.3,147.332l.385,6.919c.642-.036,1.277-.091,1.911-.162l-.782-6.884C165.311,147.261,164.808,147.3,164.3,147.332Z" transform="translate(-128.637 -86.254)" fill="#fff"/>
      <path id="Tracé_6982" data-name="Tracé 6982" d="M159.714,153.908c.631.1,1.261.194,1.9.263l.754-6.887c-.506-.055-1.008-.125-1.507-.21Z" transform="translate(-131.282 -86.329)" fill="#fff"/>
      <path id="Tracé_6983" data-name="Tracé 6983" d="M166.217,147.178l1.164,6.829c.629-.106,1.254-.232,1.872-.372l-1.539-6.755C167.22,146.994,166.722,147.091,166.217,147.178Z" transform="translate(-127.531 -86.441)" fill="#fff"/>
      <path id="Tracé_6984" data-name="Tracé 6984" d="M162.5,147.287l-.38,6.917q.929.05,1.873.051v0l.033,0V150.59l.536-3.217-.569-.047Q163.244,147.326,162.5,147.287Z" transform="translate(-129.892 -86.206)" fill="#fff"/>
      <path id="Tracé_6985" data-name="Tracé 6985" d="M157.351,153.311c.61.173,1.228.333,1.85.473l1.533-6.755q-.745-.17-1.477-.38Z" transform="translate(-132.645 -86.574)" fill="#fff"/>
      <path id="Tracé_6986" data-name="Tracé 6986" d="M148.648,129.282l-6.917-.366q-.05.908-.049,1.831v.069l6.927-.069C148.609,130.255,148.623,129.766,148.648,129.282Z" transform="translate(-141.682 -96.72)" fill="#fff"/>
      <path id="Tracé_6987" data-name="Tracé 6987" d="M148.632,131.081l-6.914.405q.057.958.162,1.9l6.884-.782Q148.679,131.85,148.632,131.081Z" transform="translate(-141.661 -95.48)" fill="#fff"/>
      <path id="Tracé_6988" data-name="Tracé 6988" d="M148.818,133l-6.826,1.181c.107.627.232,1.247.372,1.864l6.755-1.539C149.005,134.007,148.906,133.505,148.818,133Z" transform="translate(-141.503 -94.382)" fill="#fff"/>
      <path id="Tracé_6989" data-name="Tracé 6989" d="M154.826,144.149,150.81,149.8q.785.558,1.6,1.066l3.68-5.869Q155.448,144.59,154.826,144.149Z" transform="translate(-136.417 -88.016)" fill="#fff"/>
      <path id="Tracé_6990" data-name="Tracé 6990" d="M157.694,146.013l-2.632,6.408q.882.362,1.783.68l2.285-6.542Q158.4,146.305,157.694,146.013Z" transform="translate(-133.965 -86.941)" fill="#fff"/>
      <path id="Tracé_6991" data-name="Tracé 6991" d="M151.328,140.068l-5.64,4.026q.556.778,1.15,1.522l5.411-4.327C151.932,140.891,151.623,140.484,151.328,140.068Z" transform="translate(-139.371 -90.337)" fill="#fff"/>
      <path id="Tracé_6992" data-name="Tracé 6992" d="M152.361,141.579,147.2,146.2q.639.714,1.318,1.389l4.888-4.908Q152.867,142.146,152.361,141.579Z" transform="translate(-138.498 -89.499)" fill="#fff"/>
      <path id="Tracé_6993" data-name="Tracé 6993" d="M149.735,136.7l-6.4,2.658q.367.885.784,1.744l6.238-3.016C150.139,137.634,149.929,137.174,149.735,136.7Z" transform="translate(-140.727 -92.262)" fill="#fff"/>
      <path id="Tracé_6994" data-name="Tracé 6994" d="M150.448,138.436l-6.052,3.373q.464.83.97,1.635l5.862-3.691C150.959,139.322,150.7,138.882,150.448,138.436Z" transform="translate(-140.117 -91.271)" fill="#fff"/>
      <path id="Tracé_6995" data-name="Tracé 6995" d="M156.218,145.176l-3.349,6.066c.56.311,1.126.6,1.7.88l3-6.244Q156.887,145.547,156.218,145.176Z" transform="translate(-135.23 -87.424)" fill="#fff"/>
      <path id="Tracé_6996" data-name="Tracé 6996" d="M148.905,127.649l-6.832-1.146c-.106.631-.194,1.261-.263,1.9l6.887.755C148.754,128.651,148.822,128.148,148.905,127.649Z" transform="translate(-141.608 -98.104)" fill="#fff"/>
      <path id="Tracé_6997" data-name="Tracé 6997" d="M153.53,142.944l-4.614,5.166c.478.427.965.837,1.463,1.235l4.317-5.419Q154.1,143.452,153.53,142.944Z" transform="translate(-137.51 -88.711)" fill="#fff"/>
      <path id="Tracé_6998" data-name="Tracé 6998" d="M170.382,116.72,173,110.306q-.882-.362-1.786-.675l-2.263,6.548C169.431,116.345,169.907,116.526,170.382,116.72Z" transform="translate(-125.956 -107.766)" fill="#fff"/>
      <path id="Tracé_6999" data-name="Tracé 6999" d="M149.346,126.03l-6.667-1.887q-.26.913-.472,1.846l6.76,1.526C149.081,127.014,149.207,126.521,149.346,126.03Z" transform="translate(-141.379 -99.456)" fill="#fff"/>
      <path id="Tracé_7000" data-name="Tracé 7000" d="M164.776,115.413l.372-6.917c-.594-.033-1.2-.047-1.8-.047h-.1l.1,6.927C163.828,115.375,164.3,115.387,164.776,115.413Z" transform="translate(-129.245 -108.448)" fill="#fff"/>
      <path id="Tracé_7001" data-name="Tracé 7001" d="M163.138,115.4l-.427-6.914q-.951.059-1.889.164l.782,6.884Q162.366,115.449,163.138,115.4Z" transform="translate(-130.643 -108.426)" fill="#fff"/>
      <path id="Tracé_7002" data-name="Tracé 7002" d="M161.476,115.59l-1.164-6.829c-.632.107-1.26.235-1.883.378l1.559,6.749Q160.725,115.718,161.476,115.59Z" transform="translate(-132.022 -108.267)" fill="#fff"/>
      <path id="Tracé_7003" data-name="Tracé 7003" d="M159.857,115.96l-1.932-6.654c-.617.178-1.224.375-1.821.585l2.3,6.536C158.884,116.258,159.366,116.1,159.857,115.96Z" transform="translate(-133.364 -107.953)" fill="#fff"/>
      <path id="Tracé_7004" data-name="Tracé 7004" d="M172.094,117.5l3.332-6.072c-.56-.307-1.129-.6-1.7-.875l-2.985,6.252C171.195,117.026,171.649,117.257,172.094,117.5Z" transform="translate(-124.924 -107.234)" fill="#fff"/>
      <path id="Tracé_7005" data-name="Tracé 7005" d="M170.455,109.436c-.613-.172-1.231-.33-1.856-.468l-1.509,6.763c.5.11.99.235,1.477.374Z" transform="translate(-127.027 -108.148)" fill="#fff"/>
      <path id="Tracé_7006" data-name="Tracé 7006" d="M149.189,134.884l-6.656,1.932q.27.922.585,1.82l6.536-2.3C149.484,135.858,149.331,135.374,149.189,134.884Z" transform="translate(-141.191 -93.304)" fill="#fff"/>
      <path id="Tracé_7007" data-name="Tracé 7007" d="M167.824,108.832c-.628-.1-1.255-.189-1.889-.259l-.754,6.887c.509.057,1.014.126,1.517.208Z" transform="translate(-128.128 -108.376)" fill="#fff"/>
      <path id="Tracé_7008" data-name="Tracé 7008" d="M152.779,120.3l-5.186-4.593q-.632.712-1.224,1.454l5.419,4.317C152.108,121.075,152.438,120.684,152.779,120.3Z" transform="translate(-138.979 -104.291)" fill="#fff"/>
      <path id="Tracé_7009" data-name="Tracé 7009" d="M150.745,123l-6.069-3.34c-.307.561-.6,1.126-.877,1.7l6.246,3C150.265,123.9,150.5,123.443,150.745,123Z" transform="translate(-140.461 -102.028)" fill="#fff"/>
      <path id="Tracé_7010" data-name="Tracé 7010" d="M151.685,121.6l-5.656-4q-.553.78-1.06,1.591l5.869,3.682Q151.246,122.224,151.685,121.6Z" transform="translate(-139.786 -103.207)" fill="#fff"/>
      <path id="Tracé_7011" data-name="Tracé 7011" d="M158.282,116.5l-2.676-6.389q-.885.367-1.738.782l3.024,6.235Q157.574,116.8,158.282,116.5Z" transform="translate(-134.653 -107.487)" fill="#fff"/>
      <path id="Tracé_7012" data-name="Tracé 7012" d="M149.959,124.48l-6.406-2.632c-.243.588-.467,1.183-.68,1.785l6.544,2.283Q149.667,125.19,149.959,124.48Z" transform="translate(-140.995 -100.772)" fill="#fff"/>
      <path id="Tracé_7013" data-name="Tracé 7013" d="M156.768,117.224l-3.373-6.052c-.558.312-1.108.639-1.646.979l3.715,5.85Q156.1,117.594,156.768,117.224Z" transform="translate(-135.876 -106.877)" fill="#fff"/>
      <path id="Tracé_7014" data-name="Tracé 7014" d="M155.337,118.1l-4.037-5.632c-.516.371-1.023.755-1.518,1.153l4.336,5.4C154.515,118.7,154.922,118.4,155.337,118.1Z" transform="translate(-137.01 -106.129)" fill="#fff"/>
      <path id="Tracé_7015" data-name="Tracé 7015" d="M154,119.133l-4.637-5.148q-.707.639-1.38,1.313l4.908,4.89C153.249,119.825,153.618,119.475,154,119.133Z" transform="translate(-138.049 -105.254)" fill="#fff"/>
    </g>
    <path id="Tracé_7016" data-name="Tracé 7016" d="M192.026,125.194h4.27l18.4,40.659h-4.9l-4.729-10.67H183.089l-4.787,10.67H173.63Zm11.247,25.894L194.1,130.5l-9.227,20.588Z" transform="translate(18.427 10.251)" fill="#fff"/>
    <path id="Tracé_7017" data-name="Tracé 7017" d="M204.719,125.376h4.555v36.16H232v4.212H204.719Z" transform="translate(36.358 10.356)" fill="#fff"/>
    <path id="Tracé_7018" data-name="Tracé 7018" d="M235.425,129.588H221.871v-4.212h31.72v4.212H240.039v36.16h-4.614Z" transform="translate(46.251 10.356)" fill="#0d999f"/>
    <path id="Tracé_7019" data-name="Tracé 7019" d="M244.51,145.929v-.115c0-11.132,8.363-20.876,20.648-20.876s20.53,9.631,20.53,20.761v.115c0,11.132-8.362,20.876-20.645,20.876S244.51,157.06,244.51,145.929Zm36.449,0v-.115c0-9.169-6.689-16.668-15.916-16.668s-15.8,7.382-15.8,16.553v.115c0,9.169,6.69,16.668,15.919,16.668S280.959,155.1,280.959,145.929Z" transform="translate(59.308 10.103)" fill="#0d999f"/>
    <path id="Tracé_7020" data-name="Tracé 7020" d="M276.732,125.376h17.359c4.959,0,8.94,1.5,11.476,4.038a11.154,11.154,0,0,1,3.116,7.958v.117c0,6.689-4.614,10.612-10.959,11.764l12.4,16.495h-5.593L292.821,150.06H281.287v15.687h-4.555Zm16.953,20.588c6.056,0,10.383-3.113,10.383-8.3v-.115c0-4.961-3.807-7.958-10.325-7.958H281.287v16.376Z" transform="translate(77.893 10.356)" fill="#fff"/>
    <path id="Tracé_7021" data-name="Tracé 7021" d="M303.431,125.376h4.555v40.372h-4.555Z" transform="translate(93.292 10.356)" fill="#fff"/>
    <path id="Tracé_7022" data-name="Tracé 7022" d="M312.134,160.075l2.826-3.344c4.21,3.8,8.248,5.709,13.841,5.709,5.421,0,9-2.885,9-6.865v-.114c0-3.75-2.018-5.883-10.5-7.671-9.283-2.018-13.552-5.016-13.552-11.649v-.117c0-6.342,5.594-11.014,13.265-11.014a21.05,21.05,0,0,1,14.186,4.961l-2.652,3.518A17.732,17.732,0,0,0,326.9,129.1c-5.249,0-8.593,2.885-8.593,6.518v.115c0,3.808,2.075,5.941,10.957,7.843,9,1.962,13.149,5.248,13.149,11.419v.115c0,6.92-5.768,11.419-13.783,11.419A23.622,23.622,0,0,1,312.134,160.075Z" transform="translate(98.312 10.145)" fill="#fff"/>
    <path id="Tracé_7023" data-name="Tracé 7023" d="M337.224,125.376h29.181v4.153H341.779v13.784H363.81v4.152H341.779v14.13h24.915v4.153h-29.47Z" transform="translate(112.783 10.356)" fill="#fff"/>
    <g id="Groupe_489" data-name="Groupe 489" transform="translate(-640.318 73.145)">
      <path id="Tracé_7210" data-name="Tracé 7210" d="M147.026-9.878H143.44V0h-1.694V-9.878h-1.562v-1.474h1.562v-.99a4.06,4.06,0,0,1,.891-2.827,3.261,3.261,0,0,1,2.541-.979,5.509,5.509,0,0,1,1.87.286v1.474a6.362,6.362,0,0,0-1.65-.286q-1.98,0-1.98,2.42v.924h3.608ZM160.82-5.7a5.874,5.874,0,0,1-.781,2.97A5.931,5.931,0,0,1,157.894-.55a5.812,5.812,0,0,1-3.036.814,5.756,5.756,0,0,1-3.014-.8A5.839,5.839,0,0,1,149.732-2.7a5.879,5.879,0,0,1-.77-2.959,5.94,5.94,0,0,1,.77-2.97,5.846,5.846,0,0,1,2.134-2.178,5.812,5.812,0,0,1,3.036-.814,5.814,5.814,0,0,1,3.025.8,5.813,5.813,0,0,1,2.123,2.156A5.879,5.879,0,0,1,160.82-5.7Zm-1.738.044a4.612,4.612,0,0,0-.561-2.255A4.3,4.3,0,0,0,157-9.526a3.985,3.985,0,0,0-2.145-.594,4.025,4.025,0,0,0-2.156.583,4.017,4.017,0,0,0-1.474,1.595A4.777,4.777,0,0,0,150.7-5.7a4.641,4.641,0,0,0,.55,2.233,4.185,4.185,0,0,0,1.518,1.617,4,4,0,0,0,2.134.594,4.025,4.025,0,0,0,2.156-.583,4.1,4.1,0,0,0,1.485-1.6A4.652,4.652,0,0,0,159.082-5.654ZM164.582,0V-11.374h1.694V-8.4a5.746,5.746,0,0,1,1.87-2.354,4.27,4.27,0,0,1,2.772-.814v1.826h-.132a4.494,4.494,0,0,0-2.3.594,4.136,4.136,0,0,0-1.617,1.771,6.266,6.266,0,0,0-.594,2.849V0Zm21.032-10.032a6.727,6.727,0,0,0-1.76.22,11.378,11.378,0,0,0-1.694.616l-.506-1.386a12.14,12.14,0,0,1,2-.7,8.8,8.8,0,0,1,2.134-.242,5.074,5.074,0,0,1,3.586,1.166,4.43,4.43,0,0,1,1.254,3.41V0H189V-1.716A4.93,4.93,0,0,1,187.308-.3a5.165,5.165,0,0,1-2.42.539,5.281,5.281,0,0,1-2.068-.407,3.746,3.746,0,0,1-1.573-1.21,3.142,3.142,0,0,1-.605-1.947,3.179,3.179,0,0,1,1.32-2.739,5.912,5.912,0,0,1,3.542-.957,12.825,12.825,0,0,1,3.5.484v-.4a2.948,2.948,0,0,0-.88-2.31A3.623,3.623,0,0,0,185.614-10.032Zm.066,4.268a4.086,4.086,0,0,0-2.453.638,2.042,2.042,0,0,0-.869,1.738,1.977,1.977,0,0,0,.825,1.672,3.305,3.305,0,0,0,2.035.616,4.61,4.61,0,0,0,1.914-.4,3.361,3.361,0,0,0,1.386-1.1,2.648,2.648,0,0,0,.506-1.584v-1.1A11.975,11.975,0,0,0,185.68-5.764Zm26.334,3.828a7.253,7.253,0,0,1-2.046,1.628,5.555,5.555,0,0,1-2.6.572,5.618,5.618,0,0,1-2.959-.8,5.841,5.841,0,0,1-2.1-2.167,5.9,5.9,0,0,1-.77-2.948,5.94,5.94,0,0,1,.77-2.97,5.927,5.927,0,0,1,2.1-2.178,5.56,5.56,0,0,1,2.959-.814,5.7,5.7,0,0,1,2.574.539,7.154,7.154,0,0,1,1.98,1.485L210.8-8.4a7.131,7.131,0,0,0-1.6-1.265,3.732,3.732,0,0,0-1.859-.451,3.743,3.743,0,0,0-2.068.594,4.239,4.239,0,0,0-1.463,1.606A4.652,4.652,0,0,0,203.28-5.7a4.622,4.622,0,0,0,.55,2.244,4.234,4.234,0,0,0,1.507,1.606,3.946,3.946,0,0,0,2.123.594,4.7,4.7,0,0,0,3.476-1.694Zm7.612-8.1a6.727,6.727,0,0,0-1.76.22,11.378,11.378,0,0,0-1.694.616l-.506-1.386a12.14,12.14,0,0,1,2-.7,8.8,8.8,0,0,1,2.134-.242,5.074,5.074,0,0,1,3.586,1.166,4.43,4.43,0,0,1,1.254,3.41V0h-1.628V-1.716A4.93,4.93,0,0,1,221.32-.3a5.165,5.165,0,0,1-2.42.539,5.281,5.281,0,0,1-2.068-.407,3.746,3.746,0,0,1-1.573-1.21,3.142,3.142,0,0,1-.605-1.947,3.179,3.179,0,0,1,1.32-2.739,5.912,5.912,0,0,1,3.542-.957,12.825,12.825,0,0,1,3.5.484v-.4a2.948,2.948,0,0,0-.88-2.31A3.623,3.623,0,0,0,219.626-10.032Zm.066,4.268a4.086,4.086,0,0,0-2.453.638,2.042,2.042,0,0,0-.869,1.738,1.977,1.977,0,0,0,.825,1.672,3.305,3.305,0,0,0,2.035.616,4.61,4.61,0,0,0,1.914-.4,3.361,3.361,0,0,0,1.386-1.1,2.648,2.648,0,0,0,.506-1.584v-1.1A11.975,11.975,0,0,0,219.692-5.764Zm19.008-5.61V0h-1.672V-1.98A4.353,4.353,0,0,1,233.134.242,4.162,4.162,0,0,1,229.944-1a4.644,4.644,0,0,1-1.166-3.311v-7.062h1.694V-4.73a3.62,3.62,0,0,0,.825,2.519,2.968,2.968,0,0,0,2.321.913,3.374,3.374,0,0,0,1.738-.451A3.29,3.29,0,0,0,236.577-3a3.732,3.732,0,0,0,.451-1.859v-6.512ZM251.02-3.19a3.022,3.022,0,0,1-1.144,2.5,4.51,4.51,0,0,1-2.9.913,7.4,7.4,0,0,1-2.5-.451,7.408,7.408,0,0,1-2.211-1.221l.858-1.21A6.515,6.515,0,0,0,247.06-1.21a2.748,2.748,0,0,0,1.694-.5,1.558,1.558,0,0,0,.66-1.309v-.044a1.309,1.309,0,0,0-.715-1.188,9.467,9.467,0,0,0-2.123-.814,14.881,14.881,0,0,1-1.936-.671,3.608,3.608,0,0,1-1.3-.957,2.348,2.348,0,0,1-.528-1.584v-.044A2.911,2.911,0,0,1,243.9-10.67a4.217,4.217,0,0,1,2.783-.9,7.085,7.085,0,0,1,2.123.341,7.951,7.951,0,0,1,1.969.913l-.77,1.276a7.256,7.256,0,0,0-1.683-.814,5.372,5.372,0,0,0-1.683-.286,2.559,2.559,0,0,0-1.6.462,1.431,1.431,0,0,0-.605,1.188v.044a1.208,1.208,0,0,0,.715,1.111,13.192,13.192,0,0,0,2.211.847,12.775,12.775,0,0,1,1.881.693,3.591,3.591,0,0,1,1.265.99,2.424,2.424,0,0,1,.506,1.573Zm4.862-1.87a4.216,4.216,0,0,0,1.309,2.816,3.863,3.863,0,0,0,2.695,1.034,4.468,4.468,0,0,0,1.98-.418,5.765,5.765,0,0,0,1.606-1.188l1.056.946a6.7,6.7,0,0,1-2.046,1.584,5.935,5.935,0,0,1-2.64.55,5.626,5.626,0,0,1-2.86-.748,5.448,5.448,0,0,1-2.057-2.1,6.209,6.209,0,0,1-.759-3.091,6.426,6.426,0,0,1,.7-2.992,5.455,5.455,0,0,1,1.958-2.156,5.125,5.125,0,0,1,2.794-.792,5.064,5.064,0,0,1,2.838.792A5.013,5.013,0,0,1,264.3-8.657a7.313,7.313,0,0,1,.627,3.069,5,5,0,0,1-.022.528Zm7.326-1.254a4.693,4.693,0,0,0-1.078-2.772,3.193,3.193,0,0,0-2.552-1.1,3.281,3.281,0,0,0-2.5,1.1,4.662,4.662,0,0,0-1.2,2.772Z" transform="translate(855 51)" fill="#fff"/>
      <path id="Tracé_7211" data-name="Tracé 7211" d="M10.912-9.35a4.556,4.556,0,0,1,4-2.266,3.992,3.992,0,0,1,3.091,1.232A4.749,4.749,0,0,1,19.14-7.04V0H17.446V-6.644a3.736,3.736,0,0,0-.781-2.541,2.73,2.73,0,0,0-2.167-.891,2.974,2.974,0,0,0-2.244.946,3.576,3.576,0,0,0-.9,2.574V0H9.68V-6.688A3.673,3.673,0,0,0,8.9-9.174a2.689,2.689,0,0,0-2.145-.9,2.915,2.915,0,0,0-1.617.462A3.25,3.25,0,0,0,4-8.338,3.987,3.987,0,0,0,3.586-6.49V0H1.892V-11.374H3.586V-9.46A5.667,5.667,0,0,1,5.1-11.033a3.752,3.752,0,0,1,2.156-.583A3.9,3.9,0,0,1,9.493-11,4.147,4.147,0,0,1,10.912-9.35ZM28.732.374a6.438,6.438,0,0,1-1.606,2.475,3.277,3.277,0,0,1-2.178.737,5.166,5.166,0,0,1-1.254-.143,6.107,6.107,0,0,1-1.166-.429L23.1,1.672a3.843,3.843,0,0,0,1.782.418,1.875,1.875,0,0,0,1.3-.473A4.767,4.767,0,0,0,27.214-.044l-5.17-11.33h1.87L28.05-1.892,31.7-11.374h1.8Zm25.234-2.31A7.253,7.253,0,0,1,51.92-.308a5.555,5.555,0,0,1-2.6.572,5.618,5.618,0,0,1-2.959-.8,5.841,5.841,0,0,1-2.1-2.167,5.9,5.9,0,0,1-.77-2.948,5.94,5.94,0,0,1,.77-2.97,5.927,5.927,0,0,1,2.1-2.178,5.56,5.56,0,0,1,2.959-.814,5.7,5.7,0,0,1,2.574.539,7.154,7.154,0,0,1,1.98,1.485L52.756-8.4a7.131,7.131,0,0,0-1.6-1.265A3.732,3.732,0,0,0,49.3-10.12a3.743,3.743,0,0,0-2.068.594A4.239,4.239,0,0,0,45.771-7.92,4.652,4.652,0,0,0,45.232-5.7a4.622,4.622,0,0,0,.55,2.244,4.234,4.234,0,0,0,1.507,1.606,3.945,3.945,0,0,0,2.123.594,4.7,4.7,0,0,0,3.476-1.694Zm7.612-8.1a6.727,6.727,0,0,0-1.76.22,11.377,11.377,0,0,0-1.694.616l-.506-1.386a12.141,12.141,0,0,1,2-.7,8.8,8.8,0,0,1,2.134-.242,5.074,5.074,0,0,1,3.586,1.166,4.43,4.43,0,0,1,1.254,3.41V0H64.966V-1.716A4.929,4.929,0,0,1,63.272-.3a5.165,5.165,0,0,1-2.42.539,5.281,5.281,0,0,1-2.068-.407,3.746,3.746,0,0,1-1.573-1.21,3.142,3.142,0,0,1-.6-1.947,3.179,3.179,0,0,1,1.32-2.739,5.912,5.912,0,0,1,3.542-.957,12.825,12.825,0,0,1,3.5.484v-.4a2.948,2.948,0,0,0-.88-2.31A3.623,3.623,0,0,0,61.578-10.032Zm.066,4.268a4.086,4.086,0,0,0-2.453.638,2.042,2.042,0,0,0-.869,1.738,1.977,1.977,0,0,0,.825,1.672,3.305,3.305,0,0,0,2.035.616A4.61,4.61,0,0,0,63.1-1.5a3.361,3.361,0,0,0,1.386-1.1,2.648,2.648,0,0,0,.506-1.584v-1.1A11.976,11.976,0,0,0,61.644-5.764Zm9.416-10.3h1.694V0H71.06ZM88.55-5.7a5.874,5.874,0,0,1-.781,2.97A5.931,5.931,0,0,1,85.624-.55a5.812,5.812,0,0,1-3.036.814,5.756,5.756,0,0,1-3.014-.8A5.839,5.839,0,0,1,77.462-2.7a5.879,5.879,0,0,1-.77-2.959,5.94,5.94,0,0,1,.77-2.97A5.846,5.846,0,0,1,79.6-10.8a5.812,5.812,0,0,1,3.036-.814,5.814,5.814,0,0,1,3.025.8A5.813,5.813,0,0,1,87.78-8.657,5.879,5.879,0,0,1,88.55-5.7Zm-1.738.044a4.612,4.612,0,0,0-.561-2.255,4.3,4.3,0,0,0-1.518-1.617,3.985,3.985,0,0,0-2.145-.594,4.025,4.025,0,0,0-2.156.583,4.017,4.017,0,0,0-1.474,1.595A4.777,4.777,0,0,0,78.43-5.7a4.641,4.641,0,0,0,.55,2.233A4.185,4.185,0,0,0,80.5-1.848a4,4,0,0,0,2.134.594,4.025,4.025,0,0,0,2.156-.583,4.1,4.1,0,0,0,1.485-1.6A4.652,4.652,0,0,0,86.812-5.654ZM92.312,0V-11.374h1.694V-8.4a5.746,5.746,0,0,1,1.87-2.354,4.27,4.27,0,0,1,2.772-.814v1.826h-.132a4.494,4.494,0,0,0-2.3.594A4.136,4.136,0,0,0,94.6-7.381a6.266,6.266,0,0,0-.594,2.849V0Zm9.658-15.73h1.936v1.87H101.97Zm.11,4.356h1.694V0H102.08Zm7.348,6.314a4.216,4.216,0,0,0,1.309,2.816,3.863,3.863,0,0,0,2.695,1.034,4.468,4.468,0,0,0,1.98-.418,5.765,5.765,0,0,0,1.606-1.188l1.056.946a6.7,6.7,0,0,1-2.046,1.584,5.935,5.935,0,0,1-2.64.55,5.626,5.626,0,0,1-2.86-.748,5.448,5.448,0,0,1-2.057-2.1,6.209,6.209,0,0,1-.759-3.091,6.426,6.426,0,0,1,.7-2.992,5.455,5.455,0,0,1,1.958-2.156,5.125,5.125,0,0,1,2.794-.792,5.064,5.064,0,0,1,2.838.792,5.013,5.013,0,0,1,1.837,2.167,7.313,7.313,0,0,1,.627,3.069,5.006,5.006,0,0,1-.022.528Zm7.326-1.254a4.693,4.693,0,0,0-1.078-2.772,3.193,3.193,0,0,0-2.552-1.1,3.281,3.281,0,0,0-2.5,1.1,4.662,4.662,0,0,0-1.2,2.772Zm13.2,3.124a3.022,3.022,0,0,1-1.144,2.5,4.51,4.51,0,0,1-2.9.913,7.4,7.4,0,0,1-2.5-.451A7.408,7.408,0,0,1,121.2-1.452l.858-1.21a6.515,6.515,0,0,0,3.938,1.452,2.748,2.748,0,0,0,1.694-.5,1.558,1.558,0,0,0,.66-1.309v-.044a1.309,1.309,0,0,0-.715-1.188,9.467,9.467,0,0,0-2.123-.814,14.881,14.881,0,0,1-1.936-.671,3.608,3.608,0,0,1-1.3-.957,2.348,2.348,0,0,1-.528-1.584v-.044a2.911,2.911,0,0,1,1.089-2.354,4.217,4.217,0,0,1,2.783-.9,7.085,7.085,0,0,1,2.123.341,7.951,7.951,0,0,1,1.969.913l-.77,1.276a7.256,7.256,0,0,0-1.683-.814,5.372,5.372,0,0,0-1.683-.286,2.559,2.559,0,0,0-1.6.462,1.431,1.431,0,0,0-.6,1.188v.044a1.208,1.208,0,0,0,.715,1.111,13.191,13.191,0,0,0,2.211.847,12.776,12.776,0,0,1,1.881.693,3.591,3.591,0,0,1,1.265.99,2.424,2.424,0,0,1,.506,1.573Z" transform="translate(855 51)" fill="#16999f"/>
    </g>
  </g>
</svg>
